<svg width="14" height="12" viewBox="0 0 14 12" fill="none" xmlns="http://www.w3.org/2000/svg">
<path d="M12.333 3.33329L6.99967 6.66663L1.66634 3.33329V1.99996L6.99967 5.33329L12.333 1.99996M12.333 0.666626H1.66634C0.926341 0.666626 0.333008 1.25996 0.333008 1.99996V9.99996C0.333008 10.3536 0.473484 10.6927 0.723532 10.9428C0.97358 11.1928 1.31272 11.3333 1.66634 11.3333H12.333C12.6866 11.3333 13.0258 11.1928 13.2758 10.9428C13.5259 10.6927 13.6663 10.3536 13.6663 9.99996V1.99996C13.6663 1.64634 13.5259 1.3072 13.2758 1.05715C13.0258 0.807102 12.6866 0.666626 12.333 0.666626Z" fill="#F25A2B"/>
</svg>
