<svg width="21" height="20" viewBox="0 0 21 20" fill="none" xmlns="http://www.w3.org/2000/svg">
<g id="fluent:cart-24-regular">
<path id="Vector" d="M2.58325 3.54199C2.58325 3.37623 2.6491 3.21726 2.76631 3.10005C2.88352 2.98284 3.04249 2.91699 3.20825 2.91699H3.67325C4.46492 2.91699 4.93992 3.44949 5.21075 3.94449C5.39159 4.27449 5.52242 4.65699 5.62492 5.00366C5.65264 5.00147 5.68044 5.00036 5.70825 5.00033H16.1233C16.8149 5.00033 17.3149 5.66199 17.1249 6.32783L15.6016 11.6687C15.465 12.1477 15.1761 12.5692 14.7785 12.8693C14.3809 13.1695 13.8964 13.3319 13.3983 13.332H8.44159C7.9395 13.332 7.4513 13.1671 7.05202 12.8627C6.65275 12.5583 6.3645 12.1312 6.23159 11.647L5.59825 9.33699L4.54825 5.79699L4.54742 5.79033C4.41742 5.31783 4.29575 4.87533 4.11409 4.54533C3.93992 4.22449 3.79992 4.16699 3.67409 4.16699H3.20825C3.04249 4.16699 2.88352 4.10114 2.76631 3.98393C2.6491 3.86672 2.58325 3.70775 2.58325 3.54199ZM6.81075 9.03366L7.43659 11.3162C7.56159 11.7678 7.97242 12.082 8.44159 12.082H13.3983C13.6247 12.082 13.8449 12.0082 14.0257 11.8718C14.2064 11.7354 14.3378 11.5439 14.3999 11.3262L15.8474 6.25033H5.98742L6.79909 8.98949L6.81075 9.03366ZM9.66658 15.8337C9.66658 16.2757 9.49099 16.6996 9.17843 17.0122C8.86587 17.3247 8.44195 17.5003 7.99992 17.5003C7.55789 17.5003 7.13397 17.3247 6.82141 17.0122C6.50885 16.6996 6.33325 16.2757 6.33325 15.8337C6.33325 15.3916 6.50885 14.9677 6.82141 14.6551C7.13397 14.3426 7.55789 14.167 7.99992 14.167C8.44195 14.167 8.86587 14.3426 9.17843 14.6551C9.49099 14.9677 9.66658 15.3916 9.66658 15.8337ZM8.41658 15.8337C8.41658 15.7232 8.37269 15.6172 8.29455 15.539C8.21641 15.4609 8.11043 15.417 7.99992 15.417C7.88941 15.417 7.78343 15.4609 7.70529 15.539C7.62715 15.6172 7.58325 15.7232 7.58325 15.8337C7.58325 15.9442 7.62715 16.0501 7.70529 16.1283C7.78343 16.2064 7.88941 16.2503 7.99992 16.2503C8.11043 16.2503 8.21641 16.2064 8.29455 16.1283C8.37269 16.0501 8.41658 15.9442 8.41658 15.8337ZM15.4999 15.8337C15.4999 16.2757 15.3243 16.6996 15.0118 17.0122C14.6992 17.3247 14.2753 17.5003 13.8333 17.5003C13.3912 17.5003 12.9673 17.3247 12.6547 17.0122C12.3422 16.6996 12.1666 16.2757 12.1666 15.8337C12.1666 15.3916 12.3422 14.9677 12.6547 14.6551C12.9673 14.3426 13.3912 14.167 13.8333 14.167C14.2753 14.167 14.6992 14.3426 15.0118 14.6551C15.3243 14.9677 15.4999 15.3916 15.4999 15.8337ZM14.2499 15.8337C14.2499 15.7232 14.206 15.6172 14.1279 15.539C14.0497 15.4609 13.9438 15.417 13.8333 15.417C13.7227 15.417 13.6168 15.4609 13.5386 15.539C13.4605 15.6172 13.4166 15.7232 13.4166 15.8337C13.4166 15.9442 13.4605 16.0501 13.5386 16.1283C13.6168 16.2064 13.7227 16.2503 13.8333 16.2503C13.9438 16.2503 14.0497 16.2064 14.1279 16.1283C14.206 16.0501 14.2499 15.9442 14.2499 15.8337Z" fill="#6B7280"/>
</g>
</svg>
