<svg width="21" height="20" viewBox="0 0 21 20" fill="none" xmlns="http://www.w3.org/2000/svg">
<g id="mingcute:finger-press-line" clip-path="url(#clip0_1862_7161)">
<g id="Group">
<path id="Vector" d="M9.2499 5.00033C9.77884 5.00024 10.288 5.20135 10.6741 5.56286C11.0602 5.92436 11.2944 6.4192 11.3291 6.94699L11.3332 7.08366V10.9212L15.0457 11.4262C15.83 11.5159 16.557 11.8812 17.0972 12.4568C17.6375 13.0324 17.9559 13.7811 17.9957 14.5695L17.9999 14.7378V15.0003C18.0013 15.989 17.7821 16.9655 17.3582 17.8587C17.2632 18.0583 17.0927 18.2121 16.8843 18.2861C16.6759 18.3601 16.4467 18.3483 16.247 18.2532C16.0473 18.1582 15.8935 17.9877 15.8195 17.7793C15.7456 17.5709 15.7574 17.3417 15.8524 17.142C16.1337 16.5503 16.2951 15.9088 16.3274 15.2545L16.3332 15.0003V14.7378C16.3333 14.3506 16.1985 13.9754 15.952 13.6767C15.7055 13.378 15.3626 13.1745 14.9824 13.1012L14.8299 13.0787L11.1374 12.5762C10.7547 12.5309 10.3996 12.3545 10.1323 12.077C9.86505 11.7994 9.70224 11.4378 9.67157 11.0537L9.66657 10.9212V7.08366C9.66676 6.97954 9.62796 6.87912 9.55781 6.80217C9.48766 6.72523 9.39125 6.67734 9.28755 6.66793C9.18386 6.65852 9.0804 6.68828 8.99754 6.75134C8.91469 6.8144 8.85845 6.9062 8.8399 7.00866L8.83324 7.08366V14.167C8.8331 14.3395 8.77942 14.5077 8.67961 14.6485C8.5798 14.7892 8.43877 14.8955 8.27598 14.9526C8.1132 15.0098 7.93669 15.015 7.77081 14.9676C7.60494 14.9201 7.45787 14.8224 7.3499 14.6878L7.07324 14.3487L6.82074 14.0537C6.33824 13.5062 5.98657 13.2037 5.6874 13.0512C5.51062 12.9555 5.30896 12.9157 5.10907 12.937L4.99157 12.9537L7.07824 17.1278C7.1726 17.3178 7.19094 17.5367 7.12951 17.7398C7.06808 17.9428 6.93152 18.1148 6.74766 18.2207C6.56379 18.3265 6.34648 18.3583 6.14003 18.3094C5.93357 18.2606 5.75351 18.1348 5.63657 17.9578L5.58824 17.8728L3.27407 13.2453C2.97407 12.6453 3.19657 11.8428 3.89657 11.5553C4.76574 11.1995 5.59157 11.1337 6.4424 11.5653C6.6274 11.6595 6.80907 11.7753 6.9874 11.9103L7.16657 12.052V7.08366C7.16657 6.53112 7.38606 6.00122 7.77676 5.61052C8.16747 5.21982 8.69737 5.00033 9.2499 5.00033ZM9.2499 1.66699C10.0874 1.66684 10.9135 1.86088 11.6633 2.23387C12.4132 2.60686 13.0663 3.14863 13.5714 3.81664C14.0765 4.48464 14.4199 5.26067 14.5745 6.08375C14.7291 6.90684 14.6907 7.75457 14.4624 8.56033C14.4347 8.66794 14.3858 8.76893 14.3186 8.85737C14.2513 8.9458 14.167 9.01989 14.0707 9.07527C13.9744 9.13065 13.8679 9.16622 13.7577 9.17986C13.6474 9.19351 13.5355 9.18496 13.4286 9.15473C13.3217 9.1245 13.2219 9.07319 13.1351 9.00383C13.0483 8.93446 12.9762 8.84843 12.9232 8.75081C12.8701 8.65319 12.8371 8.54594 12.8261 8.43538C12.8151 8.32481 12.8263 8.21316 12.8591 8.10699C13.0253 7.51949 13.0455 6.90029 12.9181 6.30319C12.7906 5.70608 12.5193 5.14913 12.1276 4.68072C11.736 4.21231 11.2359 3.84661 10.6708 3.61539C10.1058 3.38417 9.49276 3.29442 8.88511 3.35395C8.27745 3.41348 7.69353 3.62047 7.18406 3.95696C6.67458 4.29344 6.25498 4.74924 5.96169 5.28474C5.6684 5.82025 5.51031 6.41927 5.50114 7.02976C5.49197 7.64025 5.632 8.24375 5.90907 8.78783C6.00963 8.98475 6.02785 9.21355 5.95971 9.42391C5.89157 9.63426 5.74266 9.80893 5.54574 9.90949C5.34881 10.0101 5.12001 10.0283 4.90965 9.96013C4.6993 9.89199 4.52463 9.74308 4.42407 9.54616C4.00254 8.7203 3.80007 7.80005 3.83604 6.87353C3.87201 5.94701 4.14522 5.04523 4.6295 4.25453C5.11379 3.46384 5.79294 2.81069 6.60194 2.35764C7.41093 1.90458 8.32268 1.66677 9.2499 1.66699Z" fill="#6B7280"/>
</g>
</g>
<defs>
<clipPath id="clip0_1862_7161">
<rect width="20" height="20" fill="white" transform="translate(0.5)"/>
</clipPath>
</defs>
</svg>
