<svg width="21" height="20" viewBox="0 0 21 20" fill="none" xmlns="http://www.w3.org/2000/svg">
<g id="icon/linear/profile-circle">
<g id="icon/linear/profile-circle_2">
<g id="profile-circle">
<path id="Vector" d="M10.6002 10.6497C10.5418 10.6414 10.4668 10.6414 10.4002 10.6497C8.93351 10.5997 7.76685 9.39974 7.76685 7.92474C7.76685 6.41641 8.98351 5.19141 10.5002 5.19141C12.0085 5.19141 13.2335 6.41641 13.2335 7.92474C13.2252 9.39974 12.0668 10.5997 10.6002 10.6497Z" stroke="#6B7280" stroke-width="1.5" stroke-linecap="round" stroke-linejoin="round"/>
<path id="Vector_2" d="M16.1164 16.1498C14.6331 17.5081 12.6664 18.3331 10.4997 18.3331C8.33306 18.3331 6.36639 17.5081 4.88306 16.1498C4.96639 15.3665 5.46639 14.5998 6.35806 13.9998C8.64139 12.4831 12.3747 12.4831 14.6414 13.9998C15.5331 14.5998 16.0331 15.3665 16.1164 16.1498Z" stroke="#6B7280" stroke-width="1.5" stroke-linecap="round" stroke-linejoin="round"/>
<path id="Vector_3" d="M10.5001 18.3337C15.1025 18.3337 18.8334 14.6027 18.8334 10.0003C18.8334 5.39795 15.1025 1.66699 10.5001 1.66699C5.89771 1.66699 2.16675 5.39795 2.16675 10.0003C2.16675 14.6027 5.89771 18.3337 10.5001 18.3337Z" stroke="#6B7280" stroke-width="1.5" stroke-linecap="round" stroke-linejoin="round"/>
</g>
</g>
</g>
</svg>
