<svg width="21" height="20" viewBox="0 0 21 20" fill="none" xmlns="http://www.w3.org/2000/svg">
<g id="solar:fire-line-duotone">
<g id="Group">
<path id="Vector" d="M17.1667 10.9262C17.1667 16.852 12.13 18.3337 9.61083 18.3337C7.40833 18.3337 3 16.852 3 10.9262C3 8.60782 4.2175 7.05115 5.38333 6.16282C6.03167 5.66782 6.85833 6.16032 6.94167 6.97199L7.01333 7.67032C7.10083 8.52032 7.87417 9.21782 8.59083 8.75199C9.995 7.83949 10.5 5.64615 10.5 4.44449V4.17532C10.5 2.98365 11.7033 2.21699 12.6683 2.91532C14.8042 4.45865 17.1667 7.15365 17.1667 10.9253V10.9262Z" stroke="#6B7280" stroke-width="1.5"/>
<path id="Vector_2" opacity="0.5" d="M7.16675 15.3712C7.16675 17.7412 9.24091 18.3337 10.2776 18.3337C11.1859 18.3337 13.0001 17.7412 13.0001 15.3712C13.0001 14.4528 12.5084 13.8337 12.0334 13.4762C11.7017 13.227 11.2359 13.4512 11.1217 13.8503C10.9734 14.3703 10.4359 14.697 10.1617 14.2303C9.91175 13.8037 9.91175 13.1637 9.91175 12.7778C9.91175 12.2478 9.37841 11.9045 8.94925 12.2162C8.08841 12.8412 7.16675 13.9003 7.16675 15.3712Z" stroke="#6B7280" stroke-width="1.5"/>
</g>
</g>
</svg>
