<svg width="44" height="52" viewBox="0 0 44 52" fill="none" xmlns="http://www.w3.org/2000/svg">
<path d="M36.5033 49.92C33.6849 52.6552 30.5753 52.2288 27.6113 50.9392C24.4601 49.6236 21.5793 49.5404 18.2513 50.9392C14.1069 52.728 11.9073 52.208 9.41128 49.92C-4.68072 35.412 -2.60072 13.312 13.4153 12.48C17.2997 12.688 20.0193 14.6276 22.3073 14.7888C25.7081 14.0972 28.9633 12.116 32.6033 12.376C36.9765 12.7296 40.2473 14.456 42.4313 17.5604C33.4353 22.9684 35.5673 34.8244 43.8301 38.1524C42.1765 42.4944 40.0549 46.7844 36.4981 49.9564L36.5033 49.92ZM21.9953 12.324C21.5741 5.876 26.8001 0.572002 32.8113 0.052002C33.6381 7.488 26.0513 13.052 21.9953 12.324Z" fill="#666666"/>
</svg>
