<svg width="32" height="32" viewBox="0 0 32 32" fill="none" xmlns="http://www.w3.org/2000/svg">
<circle cx="16" cy="16" r="15.5" fill="white" stroke="#F2F2F2"/>
<path d="M21.5 12H19.5V10.75C19.5 10.1984 19.0516 9.75 18.5 9.75H13.5C12.9484 9.75 12.5 10.1984 12.5 10.75V12H10.5C10.2234 12 10 12.2234 10 12.5V13C10 13.0687 10.0562 13.125 10.125 13.125H11.0687L11.4547 21.2969C11.4797 21.8297 11.9203 22.25 12.4531 22.25H19.5469C20.0813 22.25 20.5203 21.8313 20.5453 21.2969L20.9312 13.125H21.875C21.9438 13.125 22 13.0687 22 13V12.5C22 12.2234 21.7766 12 21.5 12ZM18.375 12H13.625V10.875H18.375V12Z" fill="#242424" fill-opacity="0.7"/>
</svg>
