<svg width="44" height="44" viewBox="0 0 44 44" fill="none" xmlns="http://www.w3.org/2000/svg">
<path opacity="0.5" fill-rule="evenodd" clip-rule="evenodd" d="M22 3.5C11.7827 3.5 3.5 11.7827 3.5 22C3.5 32.2173 11.7827 40.5 22 40.5C32.2173 40.5 40.5 32.2173 40.5 22C40.5 11.7827 32.2173 3.5 22 3.5ZM0.5 22C0.5 10.1259 10.1259 0.5 22 0.5C33.8741 0.5 43.5 10.1259 43.5 22C43.5 33.8741 33.8741 43.5 22 43.5C10.1259 43.5 0.5 33.8741 0.5 22Z" fill="#F25A2B"/>
<path fill-rule="evenodd" clip-rule="evenodd" d="M15.9393 15.9393C16.5251 15.3536 17.4749 15.3536 18.0607 15.9393L22 19.8787L25.9393 15.9393C26.5251 15.3536 27.4749 15.3536 28.0607 15.9393C28.6464 16.5251 28.6464 17.4749 28.0607 18.0607L24.1213 22L28.0607 25.9393C28.6464 26.5251 28.6464 27.4749 28.0607 28.0607C27.4749 28.6464 26.5251 28.6464 25.9393 28.0607L22 24.1213L18.0607 28.0607C17.4749 28.6464 16.5251 28.6464 15.9393 28.0607C15.3536 27.4749 15.3536 26.5251 15.9393 25.9393L19.8787 22L15.9393 18.0607C15.3536 17.4749 15.3536 16.5251 15.9393 15.9393Z" fill="#F25A2B"/>
</svg>
