<svg width="19" height="22" viewBox="0 0 19 22" fill="none" xmlns="http://www.w3.org/2000/svg">
<path d="M15 8C15.2833 8 15.521 7.904 15.713 7.712C15.905 7.52 16.0007 7.28267 16 7V5H18C18.2833 5 18.521 4.904 18.713 4.712C18.905 4.52 19.0007 4.28267 19 4C19 3.71667 18.904 3.479 18.712 3.287C18.52 3.095 18.2827 2.99934 18 3H16V1C16 0.71667 15.904 0.479003 15.712 0.287003C15.52 0.0950035 15.2827 -0.000663206 15 3.46021e-06C14.7167 3.46021e-06 14.479 0.0960034 14.287 0.288003C14.095 0.480003 13.9993 0.717337 14 1V3H12C11.7167 3 11.479 3.096 11.287 3.288C11.095 3.48 10.9993 3.71734 11 4C11 4.28334 11.096 4.521 11.288 4.713C11.48 4.905 11.7173 5.00067 12 5H14V7C14 7.28334 14.096 7.521 14.288 7.713C14.48 7.905 14.7173 8.00067 15 8ZM8 12C8.55 12 9.021 11.804 9.413 11.412C9.805 11.02 10.0007 10.5493 10 10C10 9.45 9.804 8.979 9.412 8.587C9.02 8.195 8.54933 7.99934 8 8C7.45 8 6.979 8.196 6.587 8.588C6.195 8.98 5.99933 9.45067 6 10C6 10.55 6.196 11.021 6.588 11.413C6.98 11.805 7.45067 12.0007 8 12ZM8 21.625C7.86667 21.625 7.73333 21.6 7.6 21.55C7.46667 21.5 7.35 21.4333 7.25 21.35C4.81667 19.2 3 17.204 1.8 15.362C0.6 13.52 0 11.7993 0 10.2C0 7.7 0.804333 5.70834 2.413 4.225C4.02167 2.74167 5.884 2 8 2C8.16667 2 8.33333 2.00434 8.5 2.013C8.66667 2.02167 8.83333 2.034 9 2.05V4.075C8.83333 4.04167 8.67067 4.02067 8.512 4.012C8.35333 4.00334 8.18267 3.99934 8 4C6.31667 4 4.89567 4.57934 3.737 5.738C2.57833 6.89667 1.99933 8.384 2 10.2C2 11.3833 2.49167 12.7377 3.475 14.263C4.45833 15.7883 5.96667 17.484 8 19.35C10.0333 17.4833 11.5417 15.7873 12.525 14.262C13.5083 12.7367 14 11.3827 14 10.2V10H16V10.2C16 11.8 15.4 13.521 14.2 15.363C13 17.205 11.1833 19.2007 8.75 21.35C8.65 21.4333 8.53333 21.5 8.4 21.55C8.26667 21.6 8.13333 21.625 8 21.625Z" fill="#F25A2B"/>
</svg>
