<svg width="18" height="18" viewBox="0 0 18 18" fill="none" xmlns="http://www.w3.org/2000/svg">
<path id="Vector" d="M10.6239 8.5026L16.5614 2.5651C16.8431 2.28381 17.0017 1.90209 17.002 1.50393C17.0024 1.10576 16.8445 0.72377 16.5632 0.441977C16.2819 0.160185 15.9002 0.00167771 15.5021 0.00132608C15.1039 0.000974453 14.7219 0.158807 14.4401 0.440102L8.5026 6.3776L2.5651 0.440102C2.28331 0.15831 1.90112 0 1.5026 0C1.10409 0 0.721895 0.15831 0.440102 0.440102C0.15831 0.721895 0 1.10409 0 1.5026C0 1.90112 0.15831 2.28331 0.440102 2.5651L6.3776 8.5026L0.440102 14.4401C0.15831 14.7219 0 15.1041 0 15.5026C0 15.9011 0.15831 16.2833 0.440102 16.5651C0.721895 16.8469 1.10409 17.0052 1.5026 17.0052C1.90112 17.0052 2.28331 16.8469 2.5651 16.5651L8.5026 10.6276L14.4401 16.5651C14.7219 16.8469 15.1041 17.0052 15.5026 17.0052C15.9011 17.0052 16.2833 16.8469 16.5651 16.5651C16.8469 16.2833 17.0052 15.9011 17.0052 15.5026C17.0052 15.1041 16.8469 14.7219 16.5651 14.4401L10.6239 8.5026Z" fill="#F25A2B"/>
</svg>
