<svg width="24" height="30" viewBox="0 0 24 30" fill="none" xmlns="http://www.w3.org/2000/svg">
<path fill-rule="evenodd" clip-rule="evenodd" d="M4.87488 7.87501V7.69501C4.87488 5.80534 5.62555 3.99307 6.96174 2.65687C8.29794 1.32067 10.1102 0.570007 11.9999 0.570007C13.8895 0.570007 15.7018 1.32067 17.038 2.65687C18.3742 3.99307 19.1249 5.80534 19.1249 7.69501V7.87501H21.3764C22.2329 7.87501 22.9604 8.50351 23.0864 9.35101L23.4134 11.5905C24.0584 15.9975 24.0584 20.4765 23.4134 24.8835C23.2618 25.9183 22.7697 26.873 22.0147 27.5967C21.2598 28.3204 20.2851 28.7718 19.2449 28.8795L18.3014 28.977C14.1116 29.412 9.88812 29.412 5.69838 28.977L4.75488 28.8795C3.71464 28.7718 2.73999 28.3204 1.98505 27.5967C1.2301 26.873 0.737937 25.9183 0.58638 24.8835C-0.0593922 20.476 -0.0593922 15.998 0.58638 11.5905L0.91488 9.35101C0.975026 8.94085 1.18074 8.56603 1.49443 8.29503C1.80812 8.02403 2.20884 7.87494 2.62338 7.87501H4.87488ZM10.7849 2.97451C11.505 2.78917 12.2581 2.77105 12.9863 2.92151C13.7146 3.07198 14.3987 3.38706 14.9865 3.84263C15.5742 4.2982 16.0499 4.88219 16.3772 5.54991C16.7046 6.21763 16.8748 6.95138 16.8749 7.69501V7.87501H7.12488V7.69501C7.12503 6.61369 7.48468 5.56311 8.14724 4.70856C8.80981 3.85402 9.73769 3.244 10.7849 2.97451ZM4.87488 10.125V13.5C4.87488 13.7984 4.99341 14.0845 5.20438 14.2955C5.41536 14.5065 5.70151 14.625 5.99988 14.625C6.29825 14.625 6.5844 14.5065 6.79537 14.2955C7.00635 14.0845 7.12488 13.7984 7.12488 13.5V10.125H16.8749V13.5C16.8749 13.7984 16.9934 14.0845 17.2044 14.2955C17.4154 14.5065 17.7015 14.625 17.9999 14.625C18.2982 14.625 18.5844 14.5065 18.7954 14.2955C19.0064 14.0845 19.1249 13.7984 19.1249 13.5V10.125H20.9249L21.1874 11.916C21.8009 16.1077 21.8009 20.3663 21.1874 24.558C21.1085 25.098 20.8517 25.5962 20.4578 25.9739C20.0639 26.3515 19.5552 26.587 19.0124 26.643L18.0689 26.739C14.0339 27.159 9.96588 27.159 5.93088 26.739L4.98588 26.6415C4.44331 26.5852 3.93501 26.3496 3.54137 25.972C3.14772 25.5943 2.8912 25.0963 2.81238 24.5565C2.19836 20.3654 2.19836 16.1071 2.81238 11.916L3.07488 10.125H4.87488Z" fill="#242424"/>
</svg>
