<svg width="42" height="43" viewBox="0 0 42 43" fill="none" xmlns="http://www.w3.org/2000/svg">
<circle cx="21" cy="21.5" r="20.5" fill="white" stroke="#F2F2F2"/>
<g clip-path="url(#clip0_247_7170)">
<path d="M28.992 18.8805L28.321 22.7298C28.2383 23.155 27.8995 23.4136 27.5088 23.4184H17.7267L17.5325 24.5132H26.8555C27.3464 24.5505 27.6794 24.8983 27.6854 25.3431C27.6497 25.833 27.3019 26.1669 26.8555 26.1729H16.5436C15.9859 26.1228 15.6534 25.6782 15.7137 25.1841L16.1552 22.7828L15.4842 16.0377L13.5772 15.4374C13.1112 15.2524 12.921 14.8308 13.0299 14.3956C13.2108 13.9421 13.6445 13.7349 14.0716 13.8482L16.5083 14.6252C16.8366 14.7482 17.0254 15.0169 17.0733 15.3315L17.2146 16.6734L28.268 17.9094C28.7759 18.0194 29.0516 18.4217 28.992 18.8805ZM19.0703 27.9155C19.0703 28.6151 18.5031 29.1824 17.8034 29.1824C17.1037 29.1824 16.5365 28.6151 16.5365 27.9155C16.5365 27.2158 17.1037 26.6485 17.8034 26.6485C18.5031 26.6486 19.0703 27.2158 19.0703 27.9155ZM26.6337 27.9155C26.6337 28.6151 26.0664 29.1824 25.3667 29.1824C24.667 29.1824 24.0998 28.6151 24.0998 27.9155C24.0998 27.2158 24.667 26.6485 25.3667 26.6485C26.0664 26.6486 26.6337 27.2158 26.6337 27.9155Z" fill="#555555"/>
</g>
<defs>
<clipPath id="clip0_247_7170">
<rect width="16" height="16" fill="white" transform="translate(13 13.5)"/>
</clipPath>
</defs>
</svg>
