<svg width="42" height="43" viewBox="0 0 42 43" fill="none" xmlns="http://www.w3.org/2000/svg">
<circle cx="21" cy="21.5" r="20.5" fill="#F25A2B" stroke="#F2F2F2"/>
<g clip-path="url(#clip0_247_7181)">
<path d="M20.0001 17.5C20.4233 17.5 20.8306 17.6609 21.1395 17.9501C21.4484 18.2393 21.6357 18.6351 21.6635 19.0574L21.6668 19.1667V22.2367L24.6368 22.6407C25.2642 22.7125 25.8458 23.0047 26.278 23.4652C26.7102 23.9257 26.9649 24.5246 26.9968 25.1554L27.0001 25.29V25.5C27.0004 25.9669 26.9394 26.4317 26.8188 26.8827C26.6015 27.696 25.8615 28.1227 25.1535 28.1634L25.0415 28.1667H18.4908C18.142 28.1667 17.7992 28.0754 17.4965 27.902C17.1939 27.7286 16.9418 27.479 16.7655 27.178L16.7021 27.0614L15.2195 24.096C14.9795 23.616 15.1575 22.974 15.7175 22.744C16.4128 22.4594 17.0735 22.4067 17.7541 22.752C17.9021 22.8274 18.0475 22.92 18.1901 23.028L18.3335 23.1414V19.1667C18.3335 18.7247 18.509 18.3008 18.8216 17.9882C19.1342 17.6756 19.5581 17.5 20.0001 17.5ZM20.0001 14.8334C20.6701 14.8333 21.331 14.9885 21.9309 15.2869C22.5307 15.5853 23.0532 16.0187 23.4573 16.5531C23.8614 17.0875 24.1361 17.7083 24.2598 18.3668C24.3835 19.0253 24.3528 19.7034 24.1701 20.348C24.1188 20.5143 24.0044 20.654 23.8515 20.7371C23.6986 20.8202 23.5192 20.8402 23.3517 20.7929C23.1843 20.7455 23.0419 20.6345 22.9552 20.4837C22.8684 20.3328 22.8441 20.1539 22.8875 19.9854C23.0204 19.5154 23.0366 19.02 22.9347 18.5423C22.8327 18.0646 22.6156 17.6191 22.3023 17.2444C21.989 16.8696 21.5889 16.5771 21.1369 16.3921C20.6848 16.2071 20.1944 16.1353 19.7083 16.1829C19.2222 16.2306 18.755 16.3962 18.3474 16.6653C17.9399 16.9345 17.6042 17.2992 17.3695 17.7276C17.1349 18.156 17.0084 18.6352 17.0011 19.1236C16.9938 19.612 17.1058 20.0948 17.3275 20.53C17.4079 20.6876 17.4225 20.8706 17.368 21.0389C17.3135 21.2072 17.1943 21.3469 17.0368 21.4274C16.8792 21.5078 16.6962 21.5224 16.5279 21.4679C16.3596 21.4134 16.2199 21.2942 16.1395 21.1367C15.8022 20.476 15.6403 19.7398 15.669 18.9986C15.6978 18.2574 15.9164 17.536 16.3038 16.9034C16.6912 16.2709 17.2345 15.7483 17.8817 15.3859C18.5289 15.0234 19.2583 14.8332 20.0001 14.8334Z" fill="white"/>
</g>
<defs>
<clipPath id="clip0_247_7181">
<rect width="16" height="16" fill="white" transform="translate(13 13.5)"/>
</clipPath>
</defs>
</svg>
