<svg width="42" height="43" viewBox="0 0 42 43" fill="none" xmlns="http://www.w3.org/2000/svg">
<circle cx="21" cy="21.5" r="20.5" fill="white" stroke="#F2F2F2"/>
<g clip-path="url(#clip0_247_7155)">
<path d="M23.6667 22.8334C24.5256 22.8334 25.3514 23.1651 25.9719 23.7591C26.5923 24.3532 26.9594 25.1639 26.9967 26.022L27 26.1667V26.8334C27.0001 27.1698 26.8731 27.4938 26.6443 27.7404C26.4156 27.9871 26.1021 28.1381 25.7667 28.1634L25.6667 28.1667H16.3333C15.9969 28.1668 15.673 28.0398 15.4263 27.811C15.1796 27.5823 15.0286 27.2688 15.0033 26.9334L15 26.8334V26.1667C15 25.3077 15.3317 24.4819 15.9258 23.8615C16.5199 23.2411 17.3305 22.874 18.1887 22.8367L18.3333 22.8334H23.6667ZM21 14.8334C21.8841 14.8334 22.7319 15.1846 23.357 15.8097C23.9821 16.4348 24.3333 17.2827 24.3333 18.1667C24.3333 19.0508 23.9821 19.8986 23.357 20.5237C22.7319 21.1489 21.8841 21.5 21 21.5C20.1159 21.5 19.2681 21.1489 18.643 20.5237C18.0179 19.8986 17.6667 19.0508 17.6667 18.1667C17.6667 17.2827 18.0179 16.4348 18.643 15.8097C19.2681 15.1846 20.1159 14.8334 21 14.8334Z" fill="#555555"/>
</g>
<defs>
<clipPath id="clip0_247_7155">
<rect width="16" height="16" fill="white" transform="translate(13 13.5)"/>
</clipPath>
</defs>
</svg>
