<svg width="19" height="15" viewBox="0 0 19 15" fill="none" xmlns="http://www.w3.org/2000/svg">
<path d="M0.666748 12H6.50008V13.6667H0.666748V12ZM0.666748 6.16668H8.16675V7.83334H0.666748V6.16668ZM0.666748 0.333344H17.3334V2.00001H0.666748V0.333344ZM16.2284 7.85418L17.1917 7.52834L18.0251 8.97168L17.2617 9.64251C17.3579 10.098 17.3579 10.5686 17.2617 11.0242L18.0251 11.695L17.1917 13.1383L16.2284 12.8125C15.8825 13.124 15.4751 13.3597 15.0326 13.5042L14.8334 14.5H13.1667L12.9667 13.5033C12.5245 13.3588 12.1174 13.1232 11.7717 12.8117L10.8084 13.1383L9.97508 11.695L10.7384 11.0242C10.6423 10.5686 10.6423 10.098 10.7384 9.64251L9.97508 8.97168L10.8084 7.52834L11.7717 7.85418C12.1134 7.54584 12.5201 7.30834 12.9676 7.16251L13.1667 6.16668H14.8334L15.0334 7.16334C15.4758 7.30774 15.8829 7.54338 16.2284 7.85501V7.85418ZM14.0001 12C14.4421 12 14.866 11.8244 15.1786 11.5119C15.4912 11.1993 15.6667 10.7754 15.6667 10.3333C15.6667 9.89132 15.4912 9.46739 15.1786 9.15483C14.866 8.84227 14.4421 8.66668 14.0001 8.66668C13.5581 8.66668 13.1341 8.84227 12.8216 9.15483C12.509 9.46739 12.3334 9.89132 12.3334 10.3333C12.3334 10.7754 12.509 11.1993 12.8216 11.5119C13.1341 11.8244 13.5581 12 14.0001 12Z" fill="#F25A2B"/>
</svg>
