<svg width="32" height="32" viewBox="0 0 32 32" fill="none" xmlns="http://www.w3.org/2000/svg">
<circle cx="16" cy="16" r="16" fill="#F25A2B"/>
<path d="M9.29004 15.5161C8.73775 15.5161 8.29004 15.9638 8.29004 16.5161C8.29004 17.0684 8.73775 17.5161 9.29004 17.5161V15.5161ZM23.4165 17.2232C23.807 16.8327 23.807 16.1995 23.4165 15.809L17.0525 9.44505C16.662 9.05452 16.0288 9.05452 15.6383 9.44505C15.2478 9.83557 15.2478 10.4687 15.6383 10.8593L21.2952 16.5161L15.6383 22.173C15.2478 22.5635 15.2478 23.1967 15.6383 23.5872C16.0288 23.9777 16.662 23.9777 17.0525 23.5872L23.4165 17.2232ZM9.29004 17.5161H22.7094V15.5161H9.29004V17.5161Z" fill="#F2F2F2"/>
</svg>
