<svg width="32" height="32" viewBox="0 0 32 32" fill="none" xmlns="http://www.w3.org/2000/svg">
<circle cx="16" cy="16" r="16" transform="rotate(-180 16 16)" fill="white"/>
<path d="M22.8564 17C23.4087 17 23.8564 16.5523 23.8564 16C23.8564 15.4477 23.4087 15 22.8564 15L22.8564 17ZM8.72998 15.2929C8.33946 15.6834 8.33946 16.3166 8.72998 16.7071L15.0939 23.0711C15.4845 23.4616 16.1176 23.4616 16.5082 23.0711C16.8987 22.6805 16.8987 22.0474 16.5082 21.6569L10.8513 16L16.5082 10.3431C16.8987 9.95262 16.8987 9.31946 16.5082 8.92893C16.1176 8.53841 15.4845 8.53841 15.0939 8.92893L8.72998 15.2929ZM22.8564 15L9.43709 15L9.43709 17L22.8564 17L22.8564 15Z" fill="#F25A2B"/>
</svg>
