<svg width="14" height="14" viewBox="0 0 14 14" fill="none" xmlns="http://www.w3.org/2000/svg">
<path d="M6.9987 1.66683C9.9387 1.66683 12.332 4.06016 12.332 7.00016C12.332 9.94016 9.9387 12.3335 6.9987 12.3335C4.0587 12.3335 1.66536 9.94016 1.66536 7.00016C1.66536 4.06016 4.0587 1.66683 6.9987 1.66683ZM6.9987 0.333496C3.3187 0.333496 0.332031 3.32016 0.332031 7.00016C0.332031 10.6802 3.3187 13.6668 6.9987 13.6668C10.6787 13.6668 13.6654 10.6802 13.6654 7.00016C13.6654 3.32016 10.6787 0.333496 6.9987 0.333496ZM7.0387 7.8935V9.32016C6.72551 9.32881 6.41385 9.27357 6.12272 9.1578C5.83159 9.04204 5.56709 8.86818 5.34536 8.64683C4.5987 7.90016 4.4787 6.78016 4.95203 5.8935L4.2187 5.16016C3.36536 6.4535 3.50536 8.22016 4.64536 9.3535C4.95304 9.66474 5.31956 9.91167 5.72358 10.0799C6.1276 10.2482 6.56105 10.3344 6.9987 10.3335H7.0387V11.6668L8.92536 9.78016L7.0387 7.8935ZM9.3587 4.64016C8.6987 3.98016 7.82536 3.66683 6.9587 3.6735V2.3335L5.07203 4.22016L6.9587 6.10683V4.6735H6.9987C7.5987 4.6735 8.19203 4.90016 8.65203 5.3535C9.3987 6.10016 9.5187 7.22016 9.04536 8.10683L9.7787 8.84016C10.2002 8.19784 10.3885 7.4303 10.312 6.66583C10.2356 5.90136 9.89906 5.1863 9.3587 4.64016Z" fill="#F25A2B"/>
</svg>
