<svg width="48" height="49" viewBox="0 0 48 49" fill="none" xmlns="http://www.w3.org/2000/svg">
<circle cx="24" cy="24.5" r="24" fill="#F25A2B"/>
<path d="M13.9355 24.2742C13.3833 24.2742 12.9355 24.7219 12.9355 25.2742C12.9355 25.8265 13.3833 26.2742 13.9355 26.2742V24.2742ZM34.7717 25.9813C35.1622 25.5908 35.1622 24.9576 34.7717 24.5671L28.4077 18.2031C28.0172 17.8126 27.384 17.8126 26.9935 18.2031C26.603 18.5936 26.603 19.2268 26.9935 19.6173L32.6504 25.2742L26.9935 30.931C26.603 31.3215 26.603 31.9547 26.9935 32.3452C27.384 32.7358 28.0172 32.7358 28.4077 32.3452L34.7717 25.9813ZM13.9355 26.2742H34.0646V24.2742H13.9355V26.2742Z" fill="#F2F2F2"/>
</svg>
