<svg width="32" height="33" viewBox="0 0 32 33" fill="none" xmlns="http://www.w3.org/2000/svg">
<circle cx="16" cy="16.5" r="16" transform="rotate(-180 16 16.5)" fill="white"/>
<path d="M22.8567 17.5C23.409 17.5 23.8567 17.0523 23.8567 16.5C23.8567 15.9477 23.409 15.5 22.8567 15.5L22.8567 17.5ZM8.73023 15.7929C8.3397 16.1834 8.3397 16.8166 8.73023 17.2071L15.0942 23.5711C15.4847 23.9616 16.1179 23.9616 16.5084 23.5711C16.8989 23.1805 16.8989 22.5474 16.5084 22.1569L10.8515 16.5L16.5084 10.8431C16.8989 10.4526 16.8989 9.81946 16.5084 9.42893C16.1179 9.03841 15.4847 9.03841 15.0942 9.42893L8.73023 15.7929ZM22.8567 15.5L9.43733 15.5L9.43733 17.5L22.8567 17.5L22.8567 15.5Z" fill="#F25A2B"/>
</svg>
