<svg width="30" height="30" viewBox="0 0 30 30" fill="none" xmlns="http://www.w3.org/2000/svg">
<path opacity="0.5" d="M15 30C7.929 30 4.3935 30 2.196 27.8025C0 25.608 0 22.071 0 15C0 7.929 0 4.3935 2.196 2.196C4.395 0 7.929 0 15 0C22.071 0 25.6065 0 27.8025 2.196C30 4.395 30 7.929 30 15C30 22.071 30 25.6065 27.8025 27.8025C25.608 30 22.071 30 15 30Z" fill="white"/>
<path d="M10.456 10.4547C10.6669 10.2441 10.9528 10.1257 11.251 10.1257C11.5491 10.1257 11.835 10.2441 12.046 10.4547L15.001 13.4097L17.956 10.4547C18.059 10.3442 18.1832 10.2556 18.3212 10.1941C18.4592 10.1326 18.6081 10.0995 18.7592 10.0969C18.9102 10.0942 19.0603 10.122 19.2004 10.1786C19.3404 10.2351 19.4677 10.3194 19.5745 10.4262C19.6813 10.533 19.7656 10.6603 19.8221 10.8003C19.8787 10.9404 19.9065 11.0905 19.9039 11.2415C19.9012 11.3926 19.8681 11.5416 19.8066 11.6795C19.7451 11.8175 19.6565 11.9417 19.546 12.0447L16.591 14.9997L19.546 17.9547C19.6565 18.0577 19.7451 18.1819 19.8066 18.3199C19.8681 18.4579 19.9012 18.6069 19.9039 18.758C19.9065 18.909 19.8787 19.0591 19.8221 19.1991C19.7656 19.3392 19.6813 19.4665 19.5745 19.5733C19.4677 19.6801 19.3404 19.7643 19.2004 19.8209C19.0603 19.8775 18.9102 19.9053 18.7592 19.9026C18.6081 19.9 18.4592 19.8669 18.3212 19.8054C18.1832 19.7439 18.059 19.6553 17.956 19.5447L15.001 16.5897L12.046 19.5447C11.8327 19.7435 11.5506 19.8516 11.2592 19.8465C10.9677 19.8414 10.6897 19.7233 10.4835 19.5172C10.2774 19.3111 10.1593 19.033 10.1542 18.7415C10.1491 18.4501 10.2572 18.168 10.456 17.9547L13.411 14.9997L10.456 12.0447C10.2453 11.8338 10.127 11.5479 10.127 11.2497C10.127 10.9516 10.2453 10.6657 10.456 10.4547Z" fill="white"/>
</svg>
