<svg width="12" height="14" viewBox="0 0 12 14" fill="none" xmlns="http://www.w3.org/2000/svg">
<path d="M8.66667 8.33334C9.52564 8.33339 10.3514 8.66503 10.9719 9.25911C11.5923 9.85319 11.9594 10.6638 11.9967 11.522L12 11.6667V12.3333C12.0001 12.6697 11.8731 12.9937 11.6443 13.2404C11.4156 13.487 11.1021 13.6381 10.7667 13.6633L10.6667 13.6667H1.33333C0.996949 13.6668 0.672956 13.5397 0.426301 13.311C0.179647 13.0823 0.0285622 12.7688 0.00333341 12.4333L0 12.3333V11.6667C4.96283e-05 10.8077 0.331694 9.98189 0.925773 9.36148C1.51985 8.74107 2.3305 8.37395 3.18867 8.33667L3.33333 8.33334H8.66667ZM6 0.333336C6.88406 0.333336 7.7319 0.684525 8.35702 1.30965C8.98214 1.93477 9.33333 2.78261 9.33333 3.66667C9.33333 4.55072 8.98214 5.39857 8.35702 6.02369C7.7319 6.64881 6.88406 7 6 7C5.11595 7 4.2681 6.64881 3.64298 6.02369C3.01786 5.39857 2.66667 4.55072 2.66667 3.66667C2.66667 2.78261 3.01786 1.93477 3.64298 1.30965C4.2681 0.684525 5.11595 0.333336 6 0.333336Z" fill="#F25A2B"/>
</svg>
