<svg width="36" height="24" viewBox="0 0 36 24" fill="none" xmlns="http://www.w3.org/2000/svg">
<rect width="36" height="24" rx="12" fill="white"/>
<path d="M17 8.5H19C19 8.23478 18.8946 7.98043 18.7071 7.79289C18.5196 7.60536 18.2652 7.5 18 7.5C17.7348 7.5 17.4804 7.60536 17.2929 7.79289C17.1054 7.98043 17 8.23478 17 8.5ZM16.25 8.5C16.25 8.27019 16.2953 8.04262 16.3832 7.8303C16.4712 7.61798 16.6001 7.42507 16.7626 7.26256C16.9251 7.10006 17.118 6.97116 17.3303 6.88321C17.5426 6.79527 17.7702 6.75 18 6.75C18.2298 6.75 18.4574 6.79527 18.6697 6.88321C18.882 6.97116 19.0749 7.10006 19.2374 7.26256C19.3999 7.42507 19.5288 7.61798 19.6168 7.8303C19.7047 8.04262 19.75 8.27019 19.75 8.5H22.625C22.7245 8.5 22.8198 8.53951 22.8902 8.60983C22.9605 8.68016 23 8.77554 23 8.875C23 8.97446 22.9605 9.06984 22.8902 9.14017C22.8198 9.21049 22.7245 9.25 22.625 9.25H21.965L21.38 15.3055C21.3351 15.7695 21.119 16.2001 20.7738 16.5134C20.4287 16.8267 19.9792 17.0002 19.513 17H16.487C16.0209 17.0001 15.5716 16.8265 15.2265 16.5132C14.8814 16.2 14.6654 15.7694 14.6205 15.3055L14.035 9.25H13.375C13.2755 9.25 13.1802 9.21049 13.1098 9.14017C13.0395 9.06984 13 8.97446 13 8.875C13 8.77554 13.0395 8.68016 13.1098 8.60983C13.1802 8.53951 13.2755 8.5 13.375 8.5H16.25ZM17.25 10.875C17.25 10.7755 17.2105 10.6802 17.1402 10.6098C17.0698 10.5395 16.9745 10.5 16.875 10.5C16.7755 10.5 16.6802 10.5395 16.6098 10.6098C16.5395 10.6802 16.5 10.7755 16.5 10.875V14.625C16.5 14.7245 16.5395 14.8198 16.6098 14.8902C16.6802 14.9605 16.7755 15 16.875 15C16.9745 15 17.0698 14.9605 17.1402 14.8902C17.2105 14.8198 17.25 14.7245 17.25 14.625V10.875ZM19.125 10.5C19.2245 10.5 19.3198 10.5395 19.3902 10.6098C19.4605 10.6802 19.5 10.7755 19.5 10.875V14.625C19.5 14.7245 19.4605 14.8198 19.3902 14.8902C19.3198 14.9605 19.2245 15 19.125 15C19.0255 15 18.9302 14.9605 18.8598 14.8902C18.7895 14.8198 18.75 14.7245 18.75 14.625V10.875C18.75 10.7755 18.7895 10.6802 18.8598 10.6098C18.9302 10.5395 19.0255 10.5 19.125 10.5ZM15.367 15.2335C15.394 15.5118 15.5236 15.7701 15.7307 15.9581C15.9377 16.146 16.2074 16.2501 16.487 16.25H19.513C19.7926 16.2501 20.0623 16.146 20.2693 15.9581C20.4764 15.7701 20.606 15.5118 20.633 15.2335L21.212 9.25H14.788L15.367 15.2335Z" fill="#636363"/>
</svg>
