<svg width="59" height="24" viewBox="0 0 59 24" fill="none" xmlns="http://www.w3.org/2000/svg">
<rect width="59" height="24" rx="12" fill="white"/>
<path d="M14.5 17.85C14.225 17.85 13.9895 17.7522 13.7935 17.5565C13.5975 17.3608 13.4997 17.1253 13.5 16.85V9.84999C13.5 9.57499 13.598 9.33949 13.794 9.14349C13.99 8.94749 14.2253 8.84966 14.5 8.84999H18.9625L17.9625 9.84999H14.5V16.85H21.5V13.375L22.5 12.375V16.85C22.5 17.125 22.402 17.3605 22.206 17.5565C22.01 17.7525 21.7747 17.8503 21.5 17.85H14.5ZM20.0875 9.13749L20.8 9.83749L17.5 13.1375V13.85H18.2L21.5125 10.5375L22.225 11.2375L18.625 14.85H16.5V12.725L20.0875 9.13749ZM22.225 11.2375L20.0875 9.13749L21.3375 7.88749C21.5375 7.68749 21.7772 7.58749 22.0565 7.58749C22.3358 7.58749 22.5712 7.68749 22.7625 7.88749L23.4625 8.59999C23.6542 8.79166 23.75 9.02499 23.75 9.29999C23.75 9.57499 23.6542 9.80833 23.4625 9.99999L22.225 11.2375Z" fill="#636363"/>
<path d="M30.89 9.47V11.51H33.29V12.44H30.89V14.57H33.59V15.5H29.75V8.54H33.59V9.47H30.89ZM34.4641 12.72C34.4641 12.1667 34.5775 11.6767 34.8041 11.25C35.0375 10.8233 35.3508 10.4933 35.7441 10.26C36.1441 10.02 36.5875 9.9 37.0741 9.9C37.4341 9.9 37.7875 9.98 38.1341 10.14C38.4875 10.2933 38.7675 10.5 38.9741 10.76V8.1H40.1241V15.5H38.9741V14.67C38.7875 14.9367 38.5275 15.1567 38.1941 15.33C37.8675 15.5033 37.4908 15.59 37.0641 15.59C36.5841 15.59 36.1441 15.47 35.7441 15.23C35.3508 14.9833 35.0375 14.6433 34.8041 14.21C34.5775 13.77 34.4641 13.2733 34.4641 12.72ZM38.9741 12.74C38.9741 12.36 38.8941 12.03 38.7341 11.75C38.5808 11.47 38.3775 11.2567 38.1241 11.11C37.8708 10.9633 37.5975 10.89 37.3041 10.89C37.0108 10.89 36.7375 10.9633 36.4841 11.11C36.2308 11.25 36.0241 11.46 35.8641 11.74C35.7108 12.0133 35.6341 12.34 35.6341 12.72C35.6341 13.1 35.7108 13.4333 35.8641 13.72C36.0241 14.0067 36.2308 14.2267 36.4841 14.38C36.7441 14.5267 37.0175 14.6 37.3041 14.6C37.5975 14.6 37.8708 14.5267 38.1241 14.38C38.3775 14.2333 38.5808 14.02 38.7341 13.74C38.8941 13.4533 38.9741 13.12 38.9741 12.74ZM42.0515 9.26C41.8448 9.26 41.6715 9.19 41.5315 9.05C41.3915 8.91 41.3215 8.73667 41.3215 8.53C41.3215 8.32333 41.3915 8.15 41.5315 8.01C41.6715 7.87 41.8448 7.8 42.0515 7.8C42.2515 7.8 42.4215 7.87 42.5615 8.01C42.7015 8.15 42.7715 8.32333 42.7715 8.53C42.7715 8.73667 42.7015 8.91 42.5615 9.05C42.4215 9.19 42.2515 9.26 42.0515 9.26ZM42.6115 9.99V15.5H41.4715V9.99H42.6115ZM45.2882 10.92V13.97C45.2882 14.1767 45.3349 14.3267 45.4282 14.42C45.5282 14.5067 45.6949 14.55 45.9282 14.55H46.6282V15.5H45.7282C45.2149 15.5 44.8215 15.38 44.5482 15.14C44.2749 14.9 44.1382 14.51 44.1382 13.97V10.92H43.4882V9.99H44.1382V8.62H45.2882V9.99H46.6282V10.92H45.2882Z" fill="#636363"/>
</svg>
