<svg width="18" height="14" viewBox="0 0 18 14" fill="none" xmlns="http://www.w3.org/2000/svg">
<path d="M3.16602 11.1663L6.91602 6.16634L9.83268 9.91634L11.916 7.41634L14.8327 11.1663M15.666 1.99967H8.99935L7.33268 0.333008H2.33268C1.89065 0.333008 1.46673 0.508602 1.15417 0.821163C0.84161 1.13372 0.666016 1.55765 0.666016 1.99967V11.9997C0.666016 12.4417 0.84161 12.8656 1.15417 13.1782C1.46673 13.4907 1.89065 13.6663 2.33268 13.6663H15.666C16.108 13.6663 16.532 13.4907 16.8445 13.1782C17.1571 12.8656 17.3327 12.4417 17.3327 11.9997V3.66634C17.3327 3.22431 17.1571 2.80039 16.8445 2.48783C16.532 2.17527 16.108 1.99967 15.666 1.99967Z" fill="#242424"/>
</svg>
