<svg width="20" height="20" viewBox="0 0 20 20" fill="none" xmlns="http://www.w3.org/2000/svg">
<path d="M9.31649 9.68421L12.9544 5.02316C13.0569 4.89149 13.1032 4.72458 13.0831 4.5589C13.063 4.39322 12.9781 4.24224 12.847 4.13895C12.741 4.05371 12.6103 4.00498 12.4744 4H3.63228C3.48982 4.00083 3.35182 4.04979 3.2407 4.13895C3.10961 4.24224 3.02473 4.39322 3.00461 4.5589C2.98449 4.72458 3.03077 4.89149 3.13333 5.02316L6.79017 9.68421V13.3916C6.77875 13.4871 6.78931 13.584 6.82105 13.6749C6.85279 13.7657 6.90488 13.8481 6.97333 13.9158L8.23649 15.1789C8.35482 15.2966 8.5149 15.3626 8.68175 15.3626C8.84861 15.3626 9.00868 15.2966 9.12702 15.1789C9.1966 15.1119 9.24986 15.0298 9.28271 14.9389C9.31556 14.848 9.32712 14.7508 9.31649 14.6547V9.68421ZM10.5796 12.8421L13.7375 16L16.8954 12.8421H10.5796Z" fill="#F25A2B"/>
</svg>
