<svg width="22" height="22" viewBox="0 0 22 22" fill="none" xmlns="http://www.w3.org/2000/svg">
<g id="mdi:cards-heart-outline">
<path id="Vector" d="M11.0891 16.8222L11.0002 16.9111L10.9024 16.8222C6.68022 12.9911 3.88911 10.4578 3.88911 7.88889C3.88911 6.11111 5.22244 4.77778 7.00022 4.77778C8.36911 4.77778 9.70244 5.66667 10.1736 6.87556H11.8269C12.298 5.66667 13.6313 4.77778 15.0002 4.77778C16.778 4.77778 18.1113 6.11111 18.1113 7.88889C18.1113 10.4578 15.3202 12.9911 11.0891 16.8222ZM15.0002 3C13.4536 3 11.9691 3.72 11.0002 4.84889C10.0313 3.72 8.54688 3 7.00022 3C4.26244 3 2.11133 5.14222 2.11133 7.88889C2.11133 11.24 5.13355 13.9867 9.71133 18.1378L11.0002 19.3111L12.2891 18.1378C16.8669 13.9867 19.8891 11.24 19.8891 7.88889C19.8891 5.14222 17.738 3 15.0002 3Z" fill="#636363"/>
</g>
</svg>
