<svg width="16" height="17" viewBox="0 0 16 17" fill="none" xmlns="http://www.w3.org/2000/svg">
<path d="M7.64477 3.06008C7.73852 2.96644 7.8656 2.91385 7.9981 2.91385C8.1306 2.91385 8.25768 2.96644 8.35143 3.06008L14.1448 8.85341C14.1905 8.90253 14.2457 8.94194 14.3071 8.96926C14.3684 8.99659 14.4346 9.01129 14.5018 9.01247C14.5689 9.01366 14.6356 9.00131 14.6978 8.97616C14.7601 8.95101 14.8166 8.91358 14.8641 8.8661C14.9116 8.81862 14.949 8.76207 14.9742 8.69981C14.9993 8.63755 15.0117 8.57086 15.0105 8.50373C15.0093 8.43659 14.9946 8.37038 14.9673 8.30905C14.94 8.24772 14.9006 8.19252 14.8514 8.14674L9.05877 2.35341C8.91948 2.21412 8.75412 2.10363 8.57213 2.02824C8.39014 1.95286 8.19509 1.91406 7.9981 1.91406C7.80112 1.91406 7.60606 1.95286 7.42407 2.02824C7.24208 2.10363 7.07672 2.21412 6.93743 2.35341L1.1441 8.14674C1.05307 8.24109 1.00273 8.36741 1.00393 8.49851C1.00513 8.62961 1.05777 8.75499 1.15052 8.84765C1.24327 8.94031 1.3687 8.99284 1.4998 8.99391C1.6309 8.99499 1.75718 8.94453 1.85143 8.85341L7.64477 3.06008Z" fill="#F25A2B"/>
<path d="M8 4.12145L13.4393 9.56078C13.4593 9.58078 13.4793 9.59945 13.5 9.61812V13.7501C13.5 14.4401 12.94 15.0001 12.25 15.0001H10C9.86739 15.0001 9.74022 14.9474 9.64645 14.8537C9.55268 14.7599 9.5 14.6327 9.5 14.5001V11.5001C9.5 11.3675 9.44732 11.2403 9.35355 11.1466C9.25979 11.0528 9.13261 11.0001 9 11.0001H7C6.86739 11.0001 6.74022 11.0528 6.64645 11.1466C6.55268 11.2403 6.5 11.3675 6.5 11.5001V14.5001C6.5 14.6327 6.44732 14.7599 6.35355 14.8537C6.25979 14.9474 6.13261 15.0001 6 15.0001H3.75C3.41848 15.0001 3.10054 14.8684 2.86612 14.634C2.6317 14.3996 2.5 14.0816 2.5 13.7501V9.61812C2.52074 9.59956 2.54097 9.58044 2.56067 9.56078L8 4.12012V4.12145Z" fill="#F25A2B"/>
</svg>
