<svg width="14" height="16" viewBox="0 0 14 16" fill="none" xmlns="http://www.w3.org/2000/svg">
<path opacity="0.6" d="M9.25 0.5H8.5C6.379 0.5 5.31775 0.5 4.65925 1.15925C4 1.81775 4 2.879 4 5V11C4 13.121 4 14.1823 4.65925 14.8407C5.31775 15.5 6.379 15.5 8.5 15.5H9.25C11.371 15.5 12.4323 15.5 13.0908 14.8407C13.75 14.1823 13.75 13.121 13.75 11V5C13.75 2.879 13.75 1.81775 13.0908 1.15925C12.4323 0.5 11.371 0.5 9.25 0.5Z" fill="white"/>
<path opacity="0.4" d="M4 5C4 3.8465 4 3.00725 4.10575 2.375H4C2.23225 2.375 1.348 2.375 0.799 2.924C0.25 3.473 0.25 4.35725 0.25 6.125V9.875C0.25 11.6427 0.25 12.5262 0.799 13.076C1.348 13.625 2.23225 13.625 4 13.625H4.10575C4 12.9928 4 12.1535 4 11V5Z" fill="white"/>
<path fill-rule="evenodd" clip-rule="evenodd" d="M8.8975 7.60237C9.00284 7.70784 9.06201 7.85081 9.06201 7.99987C9.06201 8.14893 9.00284 8.2919 8.8975 8.39737L7.3975 9.89737C7.346 9.95264 7.2839 9.99696 7.2149 10.0277C7.1459 10.0585 7.07142 10.075 6.99589 10.0763C6.92036 10.0776 6.84534 10.0638 6.7753 10.0355C6.70526 10.0072 6.64164 9.96506 6.58822 9.91165C6.53481 9.85824 6.4927 9.79461 6.46441 9.72457C6.43612 9.65453 6.42222 9.57951 6.42356 9.50398C6.42489 9.42845 6.44142 9.35397 6.47216 9.28497C6.50291 9.21597 6.54724 9.15387 6.6025 9.10237L7.1425 8.56237H1.75C1.60082 8.56237 1.45774 8.50311 1.35225 8.39762C1.24676 8.29213 1.1875 8.14906 1.1875 7.99987C1.1875 7.85069 1.24676 7.70761 1.35225 7.60212C1.45774 7.49663 1.60082 7.43737 1.75 7.43737H7.1425L6.6025 6.89737C6.54724 6.84587 6.50291 6.78377 6.47216 6.71477C6.44142 6.64578 6.42489 6.57129 6.42356 6.49576C6.42222 6.42024 6.43612 6.34521 6.46441 6.27517C6.4927 6.20513 6.53481 6.14151 6.58822 6.08809C6.64164 6.03468 6.70526 5.99257 6.7753 5.96428C6.84534 5.93599 6.92036 5.92209 6.99589 5.92343C7.07142 5.92476 7.1459 5.94129 7.2149 5.97204C7.2839 6.00278 7.346 6.04711 7.3975 6.10237L8.8975 7.60237Z" fill="white"/>
</svg>
