<svg width="95" height="32" viewBox="0 0 95 32" fill="none" xmlns="http://www.w3.org/2000/svg">
<rect x="0.5" width="94" height="32" rx="16" fill="white"/>
<g clip-path="url(#clip0_481_6127)">
<path d="M18.5 17.5C19.3284 17.5 20 16.8284 20 16C20 15.1716 19.3284 14.5 18.5 14.5C17.6716 14.5 17 15.1716 17 16C17 16.8284 17.6716 17.5 18.5 17.5Z" fill="#F25A2B"/>
<path d="M24.1023 15.8725C23.6613 14.7316 22.8956 13.745 21.8999 13.0345C20.9042 12.3241 19.7221 11.921 18.4998 11.875C17.2775 11.921 16.0955 12.3241 15.0998 13.0345C14.1041 13.745 13.3384 14.7316 12.8973 15.8725C12.8676 15.9549 12.8676 16.0451 12.8973 16.1275C13.3384 17.2684 14.1041 18.255 15.0998 18.9655C16.0955 19.6759 17.2775 20.079 18.4998 20.125C19.7221 20.079 20.9042 19.6759 21.8999 18.9655C22.8956 18.255 23.6613 17.2684 24.1023 16.1275C24.1321 16.0451 24.1321 15.9549 24.1023 15.8725ZM18.4998 18.4375C18.0177 18.4375 17.5465 18.2945 17.1456 18.0267C16.7448 17.7589 16.4324 17.3782 16.2479 16.9328C16.0634 16.4874 16.0151 15.9973 16.1092 15.5245C16.2032 15.0516 16.4354 14.6173 16.7763 14.2764C17.1172 13.9355 17.5515 13.7034 18.0243 13.6093C18.4971 13.5153 18.9872 13.5636 19.4326 13.748C19.878 13.9325 20.2587 14.245 20.5265 14.6458C20.7944 15.0466 20.9373 15.5179 20.9373 16C20.9363 16.6462 20.6792 17.2656 20.2223 17.7225C19.7654 18.1794 19.146 18.4365 18.4998 18.4375Z" fill="#F25A2B"/>
</g>
<path d="M36.892 13.44L34.804 19H33.748L31.652 13.44H32.628L34.276 18.064L35.932 13.44H36.892ZM38.4067 13.44V19H37.4947V13.44H38.4067ZM40.3561 14.176V15.808H42.2761V16.552H40.3561V18.256H42.5161V19H39.4441V13.432H42.5161V14.176H40.3561ZM50.7194 13.44L49.0714 19H48.0394L46.8714 14.792L45.6314 19L44.6074 19.008L43.0314 13.44H43.9994L45.1514 17.968L46.3994 13.44H47.4234L48.5834 17.944L49.7434 13.44H50.7194ZM55.0457 13.44C55.6377 13.44 56.155 13.5547 56.5977 13.784C57.0457 14.008 57.3897 14.3333 57.6297 14.76C57.875 15.1813 57.9977 15.6747 57.9977 16.24C57.9977 16.8053 57.875 17.296 57.6297 17.712C57.3897 18.128 57.0457 18.448 56.5977 18.672C56.155 18.8907 55.6377 19 55.0457 19H53.2297V13.44H55.0457ZM55.0457 18.256C55.6964 18.256 56.195 18.08 56.5417 17.728C56.8884 17.376 57.0617 16.88 57.0617 16.24C57.0617 15.5947 56.8884 15.0907 56.5417 14.728C56.195 14.3653 55.6964 14.184 55.0457 14.184H54.1417V18.256H55.0457ZM59.6536 14.176V15.808H61.5736V16.552H59.6536V18.256H61.8136V19H58.7416V13.432H61.8136V14.176H59.6536ZM66.3689 13.44V14.184H64.8889V19H63.9769V14.184H62.4889V13.44H66.3689ZM70.4845 17.864H68.1565L67.7565 19H66.8045L68.7965 13.432H69.8525L71.8445 19H70.8845L70.4845 17.864ZM70.2285 17.12L69.3245 14.536L68.4125 17.12H70.2285ZM73.4626 13.44V19H72.5506V13.44H73.4626ZM75.412 18.264H77.292V19H74.5V13.44H75.412V18.264ZM79.7267 19.056C79.3534 19.056 79.0174 18.992 78.7187 18.864C78.42 18.7307 78.1854 18.544 78.0147 18.304C77.844 18.064 77.7587 17.784 77.7587 17.464H78.7347C78.756 17.704 78.8494 17.9013 79.0147 18.056C79.1854 18.2107 79.4227 18.288 79.7267 18.288C80.0414 18.288 80.2867 18.2133 80.4627 18.064C80.6387 17.9093 80.7267 17.712 80.7267 17.472C80.7267 17.2853 80.6707 17.1333 80.5587 17.016C80.452 16.8987 80.316 16.808 80.1507 16.744C79.9907 16.68 79.7667 16.6107 79.4787 16.536C79.116 16.44 78.82 16.344 78.5907 16.248C78.3667 16.1467 78.1747 15.992 78.0147 15.784C77.8547 15.576 77.7747 15.2987 77.7747 14.952C77.7747 14.632 77.8547 14.352 78.0147 14.112C78.1747 13.872 78.3987 13.688 78.6867 13.56C78.9747 13.432 79.308 13.368 79.6867 13.368C80.2254 13.368 80.6654 13.504 81.0067 13.776C81.3534 14.0427 81.5454 14.4107 81.5827 14.88H80.5747C80.5587 14.6773 80.4627 14.504 80.2867 14.36C80.1107 14.216 79.8787 14.144 79.5907 14.144C79.3294 14.144 79.116 14.2107 78.9507 14.344C78.7854 14.4773 78.7027 14.6693 78.7027 14.92C78.7027 15.0907 78.7534 15.232 78.8547 15.344C78.9614 15.4507 79.0947 15.536 79.2547 15.6C79.4147 15.664 79.6334 15.7333 79.9107 15.808C80.2787 15.9093 80.5774 16.0107 80.8067 16.112C81.0414 16.2133 81.2387 16.3707 81.3987 16.584C81.564 16.792 81.6467 17.072 81.6467 17.424C81.6467 17.7067 81.5694 17.9733 81.4147 18.224C81.2654 18.4747 81.044 18.6773 80.7507 18.832C80.4627 18.9813 80.1214 19.056 79.7267 19.056Z" fill="#F25A2B"/>
<rect x="1" y="0.5" width="93" height="31" rx="15.5" stroke="#242424" stroke-opacity="0.1"/>
<defs>
<clipPath id="clip0_481_6127">
<rect width="12" height="12" fill="white" transform="translate(12.5 10)"/>
</clipPath>
</defs>
</svg>
