<svg width="48" height="48" viewBox="0 0 48 48" fill="none" xmlns="http://www.w3.org/2000/svg">
<circle cx="24" cy="24" r="22.5" fill="#F25A2B" stroke="white" stroke-width="3"/>
<g clip-path="url(#clip0_546_12118)">
<path d="M23 19.9999C23.4231 19.9999 23.8305 20.1607 24.1394 20.4499C24.4482 20.7391 24.6356 21.135 24.6633 21.5573L24.6667 21.6666V24.7366L27.6367 25.1406C28.2641 25.2124 28.8457 25.5046 29.2779 25.9651C29.71 26.4256 29.9648 27.0245 29.9967 27.6553L30 27.7899V27.9999C30.0002 28.4668 29.9393 28.9316 29.8187 29.3826C29.6013 30.1959 28.8613 30.6226 28.1533 30.6633L28.0413 30.6666H21.4907C21.1418 30.6666 20.7991 30.5753 20.4964 30.4019C20.1938 30.2284 19.9417 29.9789 19.7653 29.6779L19.702 29.5613L18.2193 26.5959C17.9793 26.1159 18.1573 25.4739 18.7173 25.2439C19.4127 24.9593 20.0733 24.9066 20.754 25.2519C20.902 25.3273 21.0473 25.4199 21.19 25.5279L21.3333 25.6413V21.6666C21.3333 21.2246 21.5089 20.8006 21.8215 20.4881C22.134 20.1755 22.558 19.9999 23 19.9999ZM23 17.3333C23.67 17.3331 24.3309 17.4884 24.9307 17.7868C25.5306 18.0851 26.0531 18.5186 26.4572 19.053C26.8613 19.5874 27.136 20.2082 27.2597 20.8667C27.3833 21.5251 27.3526 22.2033 27.17 22.8479C27.1186 23.0142 27.0043 23.1539 26.8514 23.237C26.6985 23.3201 26.5191 23.3401 26.3516 23.2928C26.1841 23.2454 26.0418 23.1344 25.9551 22.9835C25.8683 22.8327 25.844 22.6538 25.8873 22.4853C26.0203 22.0153 26.0365 21.5199 25.9345 21.0422C25.8326 20.5645 25.6155 20.119 25.3022 19.7442C24.9889 19.3695 24.5888 19.0769 24.1367 18.892C23.6847 18.707 23.1943 18.6352 22.7082 18.6828C22.222 18.7304 21.7549 18.896 21.3473 19.1652C20.9397 19.4344 20.6041 19.799 20.3694 20.2275C20.1348 20.6559 20.0083 21.1351 20.001 21.6235C19.9936 22.1119 20.1057 22.5947 20.3273 23.0299C20.4078 23.1875 20.4224 23.3705 20.3678 23.5388C20.3133 23.7071 20.1942 23.8468 20.0367 23.9273C19.8791 24.0077 19.6961 24.0223 19.5278 23.9678C19.3595 23.9133 19.2198 23.7941 19.1393 23.6366C18.8021 22.9759 18.6401 22.2397 18.6689 21.4985C18.6977 20.7573 18.9162 20.0358 19.3037 19.4033C19.6911 18.7707 20.2344 18.2482 20.8816 17.8858C21.5288 17.5233 22.2582 17.3331 23 17.3333Z" fill="white"/>
</g>
<defs>
<clipPath id="clip0_546_12118">
<rect width="16" height="16" fill="white" transform="translate(16 16)"/>
</clipPath>
</defs>
</svg>
