<svg width="57" height="56" viewBox="0 0 57 56" fill="none" xmlns="http://www.w3.org/2000/svg">
<g clip-path="url(#clip0_523_7303)">
<path d="M29.0712 16.0907C26.8592 16.0907 23.4362 13.5753 19.8312 13.664C15.0712 13.727 10.7079 16.4243 8.25557 20.6967C3.3159 29.2717 6.98157 41.937 11.7999 48.9067C14.1636 52.2993 16.9519 56.1167 20.6479 55.9977C24.1946 55.846 25.5246 53.6947 29.8296 53.6947C34.1019 53.6947 35.3129 55.9977 39.0696 55.9067C42.8892 55.846 45.3136 52.4533 47.6469 49.028C50.3442 45.0893 51.4642 41.2697 51.5249 41.0597C51.4339 41.0293 44.1002 38.2107 44.0116 29.7267C43.9509 22.6333 49.7982 19.2407 50.0712 19.089C46.7369 14.2123 41.6176 13.6663 39.8279 13.545C35.1612 13.181 31.2529 16.0907 29.0712 16.0907ZM36.9532 8.93667C38.9202 6.57533 40.2199 3.27367 39.8582 0C37.0419 0.121333 33.6469 1.87833 31.6169 4.242C29.7969 6.33267 28.2242 9.69733 28.6466 12.908C31.7686 13.1507 34.9816 11.3027 36.9509 8.939" fill="black"/>
</g>
<defs>
<clipPath id="clip0_523_7303">
<rect width="56" height="56" fill="white" transform="translate(0.716797)"/>
</clipPath>
</defs>
</svg>
