<svg width="55" height="56" viewBox="0 0 55 56" fill="none" xmlns="http://www.w3.org/2000/svg">
<g clip-path="url(#clip0_523_7295)">
<path d="M54.69 28.5241C54.69 26.2298 54.5038 24.5555 54.1009 22.8193H27.9023V33.1746H43.2803C42.9704 35.7481 41.2962 39.6236 37.5756 42.2278L37.5234 42.5745L45.807 48.9916L46.3808 49.0489C51.6515 44.1812 54.69 37.0192 54.69 28.5241Z" fill="#4285F4"/>
<path d="M27.904 55.8074C35.438 55.8074 41.7628 53.3269 46.3825 49.0485L37.5773 42.2274C35.221 43.8706 32.0585 45.0178 27.904 45.0178C20.5251 45.0178 14.2623 40.1503 12.0298 33.4224L11.7025 33.4502L3.0892 40.1161L2.97656 40.4292C7.56514 49.5444 16.9905 55.8074 27.904 55.8074Z" fill="#34A853"/>
<path d="M12.0295 33.4225C11.4405 31.6863 11.0995 29.8259 11.0995 27.9037C11.0995 25.9814 11.4405 24.1212 11.9985 22.385L11.9829 22.0152L3.26168 15.2422L2.97634 15.3779C1.08516 19.1605 0 23.4081 0 27.9037C0 32.3994 1.08516 36.6468 2.97634 40.4294L12.0295 33.4225Z" fill="#FBBC05"/>
<path d="M27.904 10.7894C33.1437 10.7894 36.6781 13.0527 38.6934 14.9441L46.5685 7.25499C41.732 2.75939 35.438 0 27.904 0C16.9905 0 7.56514 6.26281 2.97656 15.378L11.9988 22.385C14.2623 15.6571 20.5251 10.7894 27.904 10.7894Z" fill="#EB4335"/>
</g>
<defs>
<clipPath id="clip0_523_7295">
<rect width="54.7176" height="56" fill="white"/>
</clipPath>
</defs>
</svg>
