<svg width="24" height="24" viewBox="0 0 24 24" fill="none" xmlns="http://www.w3.org/2000/svg">
<circle cx="12" cy="12" r="10" fill="#555555"/>
<path d="M12 10.0029C10.8943 10.0029 10.0029 10.9029 10.0029 12C10.0029 13.0971 10.9029 13.9971 12 13.9971C13.0971 13.9971 13.9971 13.0971 13.9971 12C13.9971 10.9029 13.0971 10.0029 12 10.0029ZM18 12C18 11.1686 18 10.3543 17.9571 9.52286C17.9143 8.56286 17.6914 7.70571 16.9886 7.01143C16.2857 6.30857 15.4371 6.08571 14.4771 6.04286C13.6457 6 12.8314 6 12 6C11.1686 6 10.3543 6 9.52286 6.04286C8.56286 6.08571 7.70571 6.30857 7.01143 7.01143C6.30857 7.71429 6.08571 8.56286 6.04286 9.52286C6 10.3543 6 11.1686 6 12C6 12.8314 6 13.6457 6.04286 14.4771C6.08571 15.4371 6.30857 16.2943 7.01143 16.9886C7.71429 17.6914 8.56286 17.9143 9.52286 17.9571C10.3543 18 11.1686 18 12 18C12.8314 18 13.6457 18 14.4771 17.9571C15.4371 17.9143 16.2943 17.6914 16.9886 16.9886C17.6914 16.2857 17.9143 15.4371 17.9571 14.4771C18.0086 13.6543 18 12.8314 18 12ZM12 15.0771C10.2943 15.0771 8.92286 13.7057 8.92286 12C8.92286 10.2943 10.2943 8.92286 12 8.92286C13.7057 8.92286 15.0771 10.2943 15.0771 12C15.0771 13.7057 13.7057 15.0771 12 15.0771ZM15.2057 9.51429C14.8114 9.51429 14.4857 9.19714 14.4857 8.79429C14.4857 8.39143 14.8029 8.07429 15.2057 8.07429C15.6086 8.07429 15.9257 8.39143 15.9257 8.79429C15.9279 8.88817 15.9107 8.98151 15.8754 9.0685C15.84 9.15549 15.7871 9.23429 15.72 9.3C15.6543 9.36709 15.5755 9.41997 15.4885 9.45536C15.4015 9.49074 15.3082 9.50788 15.2143 9.50571L15.2057 9.51429Z" fill="white"/>
</svg>
