<svg width="24" height="24" viewBox="0 0 24 24" fill="none" xmlns="http://www.w3.org/2000/svg">
<circle cx="12" cy="12" r="10" fill="#555555"/>
<path d="M18 13.0302V17.4667H15.4279V13.3272C15.4279 12.2871 15.0558 11.5776 14.1251 11.5776C13.4144 11.5776 12.9911 12.0562 12.8054 12.5186C12.7374 12.6839 12.72 12.9142 12.72 13.1456V17.4667H10.1467C10.1467 17.4667 10.1816 10.4563 10.1467 9.72945H12.72V10.8261L12.7031 10.8513H12.72V10.8261C13.0615 10.3 13.6717 9.54787 15.0383 9.54787C16.7308 9.54787 18 10.6541 18 13.0302ZM7.45558 6C6.57598 6 6 6.57718 6 7.33654C6 8.07906 6.55915 8.67368 7.42191 8.67368H7.43875C8.33639 8.67368 8.89373 8.07906 8.89373 7.33654C8.8781 6.57718 8.33639 6 7.45558 6ZM6.15271 17.4667H8.72479V9.72945H6.15271V17.4667Z" fill="white"/>
</svg>
