<svg width="24" height="24" viewBox="0 0 24 24" fill="none" xmlns="http://www.w3.org/2000/svg">
<circle cx="12" cy="12" r="10" fill="#555555"/>
<g clip-path="url(#clip0_2054_7680)">
<path d="M15.2489 10.6932C16.0883 11.2929 17.1166 11.6458 18.2272 11.6458V9.5098C18.017 9.50984 17.8074 9.48791 17.6017 9.44436V11.1257C16.4912 11.1257 15.463 10.7729 14.6235 10.1732V14.5322C14.6235 16.7129 12.8548 18.4804 10.6732 18.4804C9.85922 18.4804 9.10261 18.2345 8.47412 17.8126C9.19146 18.5457 10.1918 19.0005 11.2985 19.0005C13.4803 19.0005 15.249 17.2329 15.249 15.0522V10.6932H15.2489ZM16.0205 8.53823C15.5915 8.06982 15.3098 7.46448 15.2489 6.79523V6.52051H14.6562C14.8054 7.37109 15.3143 8.09777 16.0205 8.53823ZM9.85397 16.1393C9.61429 15.8253 9.48474 15.441 9.48532 15.0459C9.48532 14.0486 10.2943 13.24 11.2924 13.24C11.4783 13.2399 11.6632 13.2684 11.8405 13.3246V11.1408C11.6333 11.1125 11.4243 11.1004 11.2153 11.1048V12.8045C11.0379 12.7483 10.853 12.7198 10.6669 12.72C9.66886 12.72 8.85993 13.5285 8.85993 14.526C8.85993 15.2313 9.26426 15.8419 9.85397 16.1393Z" fill="#555555"/>
<path d="M14.6219 10.1732C15.4615 10.7728 16.4896 11.1257 17.6001 11.1257V9.44432C16.9802 9.31233 16.4315 8.98858 16.0189 8.53823C15.3126 8.09773 14.8038 7.37105 14.6546 6.52051H13.0977V15.0521C13.0942 16.0467 12.2866 16.852 11.2907 16.852C10.7038 16.852 10.1825 16.5725 9.85228 16.1393C9.26266 15.8419 8.85829 15.2312 8.85829 14.526C8.85829 13.5287 9.66721 12.72 10.6652 12.72C10.8565 12.72 11.0408 12.7498 11.2136 12.8046V11.1049C9.07036 11.1491 7.34668 12.8995 7.34668 15.0521C7.34668 16.1267 7.7759 17.1009 8.47257 17.8127C9.10106 18.2345 9.85762 18.4805 10.6717 18.4805C12.8533 18.4805 14.6219 16.7128 14.6219 14.5322V10.1732L14.6219 10.1732Z" fill="white"/>
<path d="M17.6011 9.44377V8.98924C17.0421 8.99009 16.4941 8.83362 16.0198 8.53773C16.4396 8.99711 16.9925 9.31391 17.6011 9.44386V9.44377ZM14.6555 6.51996C14.6412 6.43869 14.6303 6.35688 14.6227 6.27472V6H12.4731V14.5317C12.4697 15.5262 11.6621 16.3315 10.6661 16.3315C10.3838 16.332 10.1053 16.266 9.85315 16.1389C10.1833 16.572 10.7047 16.8515 11.2916 16.8515C12.2874 16.8515 13.0951 16.0463 13.0986 15.0516V6.52H14.6555V6.51996ZM11.2147 11.1043V10.6203C11.035 10.5958 10.8539 10.5835 10.6726 10.5836C8.49079 10.5836 6.72217 12.3513 6.72217 14.5317C6.72217 15.8987 7.41726 17.1035 8.47353 17.8121C7.77687 17.1004 7.34765 16.1262 7.34765 15.0516C7.34765 12.899 9.07128 11.1486 11.2147 11.1043Z" fill="#A8A8A8"/>
</g>
<defs>
<clipPath id="clip0_2054_7680">
<rect width="13" height="13" fill="white" transform="translate(6 6)"/>
</clipPath>
</defs>
</svg>
