<svg width="20" height="20" viewBox="0 0 20 20" fill="none" xmlns="http://www.w3.org/2000/svg">
<path d="M18.5043 4.61214C15.5125 -0.000152466 9.40435 -1.37137 4.6674 1.49573C0.0551144 4.36283 -1.44076 10.5956 1.55099 15.2079L1.80031 15.5819L0.803054 19.3216L4.54275 18.3244L4.91672 18.5737C6.53725 19.4463 8.28244 19.9449 10.0276 19.9449C11.8975 19.9449 13.7673 19.4463 15.3879 18.449C20.0002 15.4573 21.3714 9.34908 18.5043 4.61214ZM15.8865 14.2107C15.3879 14.9586 14.7646 15.4573 13.892 15.5819C13.3934 15.5819 12.7701 15.8312 10.2769 14.834C8.15779 13.8367 6.4126 12.2162 5.16603 10.3463C4.41809 9.47374 4.04412 8.35183 3.91947 7.22993C3.91947 6.23267 4.29344 5.36008 4.91672 4.73679C5.16603 4.48748 5.41534 4.36283 5.66466 4.36283H6.28794C6.53725 4.36283 6.78656 4.36283 6.91122 4.86145C7.16053 5.48473 7.78382 6.98061 7.78382 7.10527C7.90847 7.22992 7.90847 7.47924 7.78382 7.60389C7.90847 7.85321 7.78382 8.10252 7.65916 8.22718C7.5345 8.35183 7.40985 8.60115 7.28519 8.7258C7.03588 8.85046 6.91122 9.09977 7.03588 9.34908C7.5345 10.097 8.15779 10.845 8.78107 11.4682C9.52901 12.0915 10.2769 12.5902 11.1495 12.9641C11.3989 13.0888 11.6482 13.0888 11.7728 12.8395C11.8975 12.5902 12.5208 11.9669 12.7701 11.7176C13.0194 11.4682 13.144 11.4682 13.3934 11.5929L15.3879 12.5902C15.6372 12.7148 15.8865 12.8395 16.0111 12.9641C16.1358 13.3381 16.1358 13.8367 15.8865 14.2107Z" fill="#555555"/>
</svg>
