<svg width="24" height="24" viewBox="0 0 24 24" fill="none" xmlns="http://www.w3.org/2000/svg">
<path d="M12 2C6.48 2 2 6.48 2 12C2 17.52 6.48 22 12 22C17.52 22 22 17.52 22 12C22 6.48 17.52 2 12 2ZM12 17.92C8.73 17.92 6.08 15.27 6.08 12C6.08 8.73 8.73 6.08 12 6.08C15.27 6.08 17.92 8.73 17.92 12C17.92 15.27 15.27 17.92 12 17.92ZM12 6.81C9.14 6.81 6.81 9.14 6.81 12C6.81 14.86 9.14 17.19 12 17.19C14.86 17.19 17.19 14.86 17.19 12C17.19 9.14 14.86 6.81 12 6.81ZM10.07 14.95V9.05L15.18 12L10.07 14.95Z" fill="#555555"/>
</svg>
