<svg width="24" height="24" viewBox="0 0 24 24" fill="none" xmlns="http://www.w3.org/2000/svg">
<path fill-rule="evenodd" clip-rule="evenodd" d="M12.5 1C6.70077 1 2 5.70077 2 11.5C2 17.2992 6.70077 22 12.5 22C18.2992 22 23 17.2992 23 11.5C23 5.70077 18.2992 1 12.5 1ZM3.61538 11.5C3.61598 9.62814 4.20776 7.80429 5.30631 6.28868C6.40485 4.77308 7.95402 3.64315 9.73276 3.06014C11.5115 2.47712 13.429 2.4708 15.2115 3.04208C16.9941 3.61335 18.5507 4.73304 19.6592 6.24137C20.7677 7.7497 21.3715 9.56961 21.3844 11.4414C21.3973 13.3132 20.8187 15.1413 19.7312 16.6648C18.6436 18.1883 17.1027 19.3294 15.3282 19.9253C13.5537 20.5211 11.6363 20.5413 9.84969 19.9829C10.3048 19.268 10.6667 18.4979 10.9266 17.6912L11.4823 15.5622C11.7121 15.8902 12.0203 16.1556 12.3787 16.3343C12.7372 16.513 13.1346 16.5992 13.5349 16.5852C16.2649 16.5852 18.184 14.104 18.184 11.0218C18.184 8.06138 15.7663 5.84938 12.6658 5.84938C8.80292 5.84938 6.75139 8.44477 6.75139 11.2652C6.75139 12.5823 7.44815 14.2128 8.56708 14.7372C8.73292 14.8137 8.84169 14.7372 8.86754 14.6155C8.89338 14.4938 9.04631 13.8811 9.11631 13.5989C9.12715 13.5544 9.12703 13.5079 9.11596 13.4635C9.1049 13.419 9.08321 13.3779 9.05277 13.3437C8.62994 12.7482 8.40605 12.0343 8.41308 11.304C8.41084 10.7797 8.51503 10.2604 8.71933 9.77759C8.92363 9.29474 9.2238 8.85838 9.60165 8.49492C9.97951 8.13146 10.4272 7.84846 10.9176 7.66306C11.408 7.47766 11.931 7.39372 12.4548 7.41631C12.9453 7.38761 13.4364 7.46147 13.8968 7.63318C14.3571 7.80489 14.7767 8.07067 15.1286 8.41357C15.4805 8.75647 15.7571 9.16897 15.9407 9.62473C16.1243 10.0805 16.2109 10.5695 16.1949 11.0606C16.1949 13.4772 14.9672 15.1594 13.382 15.1594C13.1772 15.175 12.9717 15.141 12.7827 15.0604C12.5938 14.9798 12.4271 14.8549 12.2966 14.6962C12.1662 14.5376 12.0759 14.3499 12.0333 14.1489C11.9907 13.948 11.9971 13.7398 12.052 13.5418C12.1425 13.1649 12.2631 12.7762 12.3794 12.3971C12.5915 11.71 12.794 11.0563 12.794 10.562C12.816 10.4013 12.8031 10.2378 12.7561 10.0825C12.7091 9.9273 12.6291 9.78405 12.5217 9.66257C12.4142 9.54109 12.2818 9.44426 12.1334 9.37868C11.9851 9.31311 11.8243 9.28034 11.6622 9.28262C10.7662 9.28262 10.0435 10.2163 10.0435 11.4569C10.0371 11.8952 10.1189 12.3303 10.2869 12.7363L9.23154 17.212C9.10254 18.0579 9.10254 18.9184 9.23154 19.7643C8.536 19.4887 7.87815 19.1261 7.27369 18.6852C5.7898 17.6015 4.67536 16.0874 4.08169 14.3485C3.77184 13.4308 3.61433 12.4686 3.61538 11.5Z" fill="#636363"/>
</svg>
