<svg width="24" height="24" viewBox="0 0 24 24" fill="none" xmlns="http://www.w3.org/2000/svg">
<path d="M22.1921 5.7135C22.1353 5.57645 22.0392 5.4593 21.9159 5.37686C21.7926 5.29443 21.6476 5.25041 21.4993 5.25038H18.6465C18.2476 4.5718 17.6799 4.00796 16.9987 3.6137C16.3174 3.21943 15.5457 3.00814 14.7586 3.00038C14.1723 2.99269 13.5902 3.10235 13.0469 3.32293C12.5035 3.5435 12.0097 3.87052 11.5946 4.28475C11.1673 4.70402 10.8282 5.20449 10.5972 5.75671C10.3662 6.30893 10.2479 6.90178 10.2493 7.50038V8.07132C6.47489 7.07569 3.3877 4.00538 3.35489 3.97257C3.25427 3.87105 3.12674 3.80041 2.98731 3.76895C2.84789 3.73749 2.70238 3.74652 2.56792 3.79499C2.43345 3.84345 2.31564 3.92933 2.22835 4.04251C2.14106 4.15569 2.08792 4.29145 2.0752 4.43382C1.67114 8.91413 2.97239 11.9123 4.1377 13.6382C4.7059 14.4914 5.39713 15.2559 6.18895 15.9069C4.76114 17.5504 2.51302 18.4138 2.48864 18.4232C2.38281 18.4628 2.28731 18.5259 2.20926 18.6076C2.13122 18.6893 2.07266 18.7877 2.03795 18.8952C2.00324 19.0028 1.99329 19.1168 2.00883 19.2287C2.02437 19.3406 2.06501 19.4476 2.1277 19.5416C2.19802 19.6466 2.47927 20.0151 3.16645 20.3591C4.01583 20.7848 5.13802 21.0004 6.49927 21.0004C13.1246 21.0004 18.6605 15.8985 19.2258 9.33413L22.0299 6.531C22.1347 6.42606 22.2061 6.29237 22.235 6.14686C22.2639 6.00134 22.2489 5.85053 22.1921 5.7135ZM17.9733 8.47069C17.8447 8.59959 17.7674 8.77086 17.7558 8.95257C17.3743 14.8673 12.4318 19.5004 6.49927 19.5004C5.50927 19.5004 4.81177 19.3691 4.32239 19.2116C5.40145 18.6257 6.90614 17.6179 7.87364 16.1666C7.93043 16.0813 7.96912 15.9852 7.98732 15.8844C8.00553 15.7835 8.00287 15.6799 7.9795 15.5801C7.95613 15.4803 7.91255 15.3864 7.85145 15.3041C7.79035 15.2218 7.71303 15.1529 7.62427 15.1016C7.5802 15.0763 3.5077 12.6323 3.49927 6.10163C4.99927 7.32038 7.74145 9.21132 10.8746 9.73819C10.982 9.7563 11.092 9.7508 11.197 9.72208C11.3021 9.69337 11.3996 9.64213 11.4828 9.57191C11.5661 9.5017 11.633 9.41421 11.679 9.31551C11.725 9.21681 11.749 9.10927 11.7493 9.00038V7.50038C11.7484 7.1003 11.8276 6.70409 11.9822 6.33508C12.1367 5.96606 12.3636 5.63168 12.6493 5.35163C12.9232 5.07722 13.2493 4.8605 13.6084 4.71429C13.9675 4.56808 14.3522 4.49535 14.7399 4.50038C15.9268 4.51538 17.0358 5.23913 17.4999 6.30132C17.5584 6.43486 17.6545 6.54846 17.7766 6.62821C17.8986 6.70797 18.0413 6.75042 18.1871 6.75038H19.6871L17.9733 8.47069Z" fill="#636363"/>
</svg>
