<svg width="36" height="36" viewBox="0 0 36 36" fill="none" xmlns="http://www.w3.org/2000/svg">
<rect width="36" height="36" rx="2" fill="white"/>
<rect x="0.5" y="0.5" width="35" height="35" rx="1.5" stroke="#CACACA" stroke-opacity="0.5"/>
<path d="M16 14V13.3333C16 12.8029 16.2107 12.2942 16.5858 11.9191C16.9609 11.5441 17.4696 11.3333 18 11.3333C18.5304 11.3333 19.0391 11.5441 19.4142 11.9191C19.7893 12.2942 20 12.8029 20 13.3333V14M16.1133 20C16.2511 20.3904 16.5065 20.7284 16.8444 20.9675C17.1823 21.2066 17.5861 21.335 18 21.335C18.4139 21.335 18.8177 21.2066 19.1556 20.9675C19.4935 20.7284 19.7489 20.3904 19.8867 20" stroke="#636363" stroke-linecap="round"/>
<path d="M23.4825 18.3507C23.0919 16.27 22.8972 15.2293 22.1559 14.6147C21.4165 14 20.3579 14 18.2399 14H17.7599C15.6425 14 14.5839 14 13.8432 14.6147C13.1032 15.2293 12.9079 16.27 12.5172 18.3507C11.9685 21.2767 11.6945 22.7393 12.4945 23.7033C13.2945 24.6667 14.7825 24.6667 17.7592 24.6667H18.2405C21.2172 24.6667 22.7059 24.6667 23.5052 23.7033C23.9692 23.1433 24.0719 22.4167 23.9692 21.3333" stroke="#636363" stroke-linecap="round"/>
</svg>
