<svg width="36" height="36" viewBox="0 0 36 36" fill="none" xmlns="http://www.w3.org/2000/svg">
<rect width="36" height="36" rx="2" fill="white"/>
<rect x="0.5" y="0.5" width="35" height="35" rx="1.5" stroke="#CACACA" stroke-opacity="0.5"/>
<path fill-rule="evenodd" clip-rule="evenodd" d="M15.4998 14.6753V14C15.4998 13.337 15.7632 12.7011 16.2321 12.2322C16.7009 11.7634 17.3368 11.5 17.9998 11.5C18.6629 11.5 19.2987 11.7634 19.7676 12.2322C20.2364 12.7011 20.4998 13.337 20.4998 14V14.6753C21.3645 14.7 21.8912 14.7887 22.2945 15.12C22.8478 15.5733 23.0012 16.3427 23.3098 17.882L23.7098 19.882C24.1525 22.0953 24.3738 23.202 23.7738 23.9347C23.1732 24.6667 22.0445 24.6667 19.7865 24.6667H16.2132C13.9558 24.6667 12.8265 24.6667 12.2265 23.9347C11.6265 23.2027 11.8478 22.096 12.2905 19.882L12.6905 17.882C12.9985 16.3427 13.1525 15.5733 13.7052 15.12C14.1092 14.7893 14.6358 14.7 15.5005 14.6753H15.4998ZM16.4998 14C16.4998 13.6022 16.6579 13.2206 16.9392 12.9393C17.2205 12.658 17.602 12.5 17.9998 12.5C18.3976 12.5 18.7792 12.658 19.0605 12.9393C19.3418 13.2206 19.4998 13.6022 19.4998 14V14.6667H16.4998V14ZM17.9998 21.5C17.6896 21.5 17.387 21.4038 17.1336 21.2248C16.8803 21.0457 16.6887 20.7925 16.5852 20.5C16.5641 20.4371 16.5307 20.379 16.4869 20.3291C16.4431 20.2793 16.3899 20.2386 16.3302 20.2095C16.2706 20.1804 16.2058 20.1635 16.1395 20.1598C16.0733 20.156 16.007 20.1654 15.9444 20.1875C15.8818 20.2097 15.8243 20.244 15.7752 20.2886C15.726 20.3332 15.6862 20.3871 15.6581 20.4472C15.63 20.5073 15.6142 20.5724 15.6115 20.6387C15.6088 20.705 15.6193 20.7711 15.6425 20.8333C15.8149 21.3209 16.1341 21.743 16.5564 22.0416C16.9786 22.3402 17.483 22.5005 18.0002 22.5005C18.5173 22.5005 19.0217 22.3402 19.4439 22.0416C19.8662 21.743 20.1855 21.3209 20.3578 20.8333C20.402 20.7082 20.3947 20.5707 20.3375 20.451C20.2803 20.3313 20.1779 20.2392 20.0528 20.195C19.9277 20.1508 19.7902 20.1581 19.6705 20.2153C19.5508 20.2725 19.4587 20.3749 19.4145 20.5C19.311 20.7925 19.1194 21.0457 18.866 21.2248C18.6127 21.4038 18.3101 21.5 17.9998 21.5Z" fill="#F25A2B"/>
</svg>
