<svg width="36" height="36" viewBox="0 0 36 36" fill="none" xmlns="http://www.w3.org/2000/svg">
<rect width="36" height="36" rx="2" fill="white"/>
<rect x="0.5" y="0.5" width="35" height="35" rx="1.5" stroke="#CACACA" stroke-opacity="0.5"/>
<path fill-rule="evenodd" clip-rule="evenodd" d="M18 15.5C17.337 15.5 16.7011 15.7634 16.2322 16.2322C15.7634 16.7011 15.5 17.337 15.5 18C15.5 18.663 15.7634 19.2989 16.2322 19.7678C16.7011 20.2366 17.337 20.5 18 20.5C18.663 20.5 19.2989 20.2366 19.7678 19.7678C20.2366 19.2989 20.5 18.663 20.5 18C20.5 17.337 20.2366 16.7011 19.7678 16.2322C19.2989 15.7634 18.663 15.5 18 15.5ZM16.5 18C16.5 17.6022 16.658 17.2206 16.9393 16.9393C17.2206 16.658 17.6022 16.5 18 16.5C18.3978 16.5 18.7794 16.658 19.0607 16.9393C19.342 17.2206 19.5 17.6022 19.5 18C19.5 18.3978 19.342 18.7794 19.0607 19.0607C18.7794 19.342 18.3978 19.5 18 19.5C17.6022 19.5 17.2206 19.342 16.9393 19.0607C16.658 18.7794 16.5 18.3978 16.5 18Z" fill="#636363"/>
<path fill-rule="evenodd" clip-rule="evenodd" d="M17.9999 12.1667C14.9906 12.1667 12.9633 13.9694 11.7866 15.498L11.7659 15.5254C11.4993 15.8714 11.2546 16.1894 11.0886 16.5654C10.9106 16.9687 10.8333 17.408 10.8333 18C10.8333 18.592 10.9106 19.0314 11.0886 19.4347C11.2553 19.8107 11.4999 20.1294 11.7659 20.4747L11.7873 20.502C12.9633 22.0307 14.9906 23.8334 17.9999 23.8334C21.0093 23.8334 23.0366 22.0307 24.2133 20.502L24.2339 20.4747C24.5006 20.1294 24.7453 19.8107 24.9113 19.4347C25.0893 19.0314 25.1666 18.592 25.1666 18C25.1666 17.408 25.0893 16.9687 24.9113 16.5654C24.7446 16.1894 24.4999 15.8714 24.2339 15.5254L24.2126 15.498C23.0366 13.9694 21.0093 12.1667 17.9999 12.1667ZM12.5799 16.108C13.6653 14.6967 15.4333 13.1667 17.9999 13.1667C20.5666 13.1667 22.3339 14.6967 23.4199 16.108C23.7133 16.488 23.8839 16.7147 23.9966 16.9694C24.1019 17.208 24.1666 17.4994 24.1666 18C24.1666 18.5007 24.1019 18.792 23.9966 19.0307C23.8839 19.2854 23.7126 19.512 23.4206 19.892C22.3333 21.3034 20.5666 22.8334 17.9999 22.8334C15.4333 22.8334 13.6659 21.3034 12.5799 19.892C12.2866 19.512 12.1159 19.2854 12.0033 19.0307C11.8979 18.792 11.8333 18.5007 11.8333 18C11.8333 17.4994 11.8979 17.208 12.0033 16.9694C12.1159 16.7147 12.2879 16.488 12.5799 16.108Z" fill="#636363"/>
</svg>
