<svg width="36" height="36" viewBox="0 0 36 36" fill="none" xmlns="http://www.w3.org/2000/svg">
<rect width="36" height="36" rx="2" fill="white"/>
<rect x="0.5" y="0.5" width="35" height="35" rx="1.5" stroke="#CACACA" stroke-opacity="0.5"/>
<path d="M18.0666 22.3667L17.9999 22.4333L17.9266 22.3667C14.7599 19.4933 12.6666 17.5933 12.6666 15.6667C12.6666 14.3333 13.6666 13.3333 14.9999 13.3333C16.0266 13.3333 17.0266 14 17.3799 14.9067H18.6199C18.9733 14 19.9733 13.3333 20.9999 13.3333C22.3333 13.3333 23.3333 14.3333 23.3333 15.6667C23.3333 17.5933 21.2399 19.4933 18.0666 22.3667ZM20.9999 12C19.8399 12 18.7266 12.54 17.9999 13.3867C17.2733 12.54 16.1599 12 14.9999 12C12.9466 12 11.3333 13.6067 11.3333 15.6667C11.3333 18.18 13.5999 20.24 17.0333 23.3533L17.9999 24.2333L18.9666 23.3533C22.3999 20.24 24.6666 18.18 24.6666 15.6667C24.6666 13.6067 23.0533 12 20.9999 12Z" fill="#636363"/>
</svg>
