<svg width="14" height="15" viewBox="0 0 14 15" fill="none" xmlns="http://www.w3.org/2000/svg">
<path fill-rule="evenodd" clip-rule="evenodd" d="M3.45573 4.24998C3.45573 3.78488 3.54734 3.32434 3.72532 2.89464C3.90331 2.46495 4.16419 2.07452 4.49306 1.74564C4.82193 1.41677 5.21236 1.15589 5.64206 0.977906C6.07175 0.799921 6.5323 0.708313 6.9974 0.708313C7.46249 0.708313 7.92304 0.799921 8.35273 0.977906C8.78243 1.15589 9.17286 1.41677 9.50173 1.74564C9.83061 2.07452 10.0915 2.46495 10.2695 2.89464C10.4475 3.32434 10.5391 3.78488 10.5391 4.24998C10.5391 5.18929 10.1659 6.09013 9.50173 6.75432C8.83754 7.41851 7.9367 7.79165 6.9974 7.79165C6.05809 7.79165 5.15725 7.41851 4.49306 6.75432C3.82887 6.09013 3.45573 5.18929 3.45573 4.24998ZM6.9974 1.95831C6.38961 1.95831 5.80671 2.19976 5.37694 2.62953C4.94717 3.0593 4.70573 3.64219 4.70573 4.24998C4.70573 4.85777 4.94717 5.44066 5.37694 5.87043C5.80671 6.3002 6.38961 6.54165 6.9974 6.54165C7.60518 6.54165 8.18808 6.3002 8.61785 5.87043C9.04762 5.44066 9.28906 4.85777 9.28906 4.24998C9.28906 3.64219 9.04762 3.0593 8.61785 2.62953C8.18808 2.19976 7.60518 1.95831 6.9974 1.95831ZM3.66406 10.2916C3.16678 10.2916 2.68987 10.4892 2.33824 10.8408C1.98661 11.1925 1.78906 11.6694 1.78906 12.1666V13.1566C1.78906 13.1716 1.7999 13.185 1.8149 13.1875C5.2474 13.7475 8.74823 13.7475 12.1799 13.1875C12.1872 13.1863 12.1938 13.1825 12.1985 13.1769C12.2033 13.1712 12.2058 13.164 12.2057 13.1566V12.1666C12.2057 11.6694 12.0082 11.1925 11.6566 10.8408C11.3049 10.4892 10.828 10.2916 10.3307 10.2916H10.0474C10.0251 10.2915 10.0028 10.2948 9.98156 10.3016L9.26073 10.5375C7.79004 11.0176 6.20475 11.0176 4.73406 10.5375L4.0124 10.3016C3.99166 10.295 3.97001 10.2916 3.94823 10.2916H3.66406ZM0.539062 12.1666C0.539062 11.3378 0.868303 10.543 1.45435 9.95694C2.04041 9.37089 2.83526 9.04165 3.66406 9.04165H3.9474C4.10156 9.04165 4.2549 9.06665 4.40073 9.11331L5.1224 9.34915C6.34076 9.74684 7.65403 9.74684 8.8724 9.34915L9.59406 9.11331C9.7399 9.06581 9.89323 9.04165 10.0466 9.04165H10.3307C11.1595 9.04165 11.9544 9.37089 12.5404 9.95694C13.1265 10.543 13.4557 11.3378 13.4557 12.1666V13.1566C13.4557 13.785 13.0007 14.32 12.3807 14.4208C8.81544 15.0028 5.17935 15.0028 1.61406 14.4208C1.314 14.372 1.0411 14.218 0.844153 13.9864C0.64721 13.7548 0.539067 13.4607 0.539062 13.1566V12.1666Z" fill="#636363"/>
</svg>
