<svg width="15" height="17" viewBox="0 0 15 17" fill="none" xmlns="http://www.w3.org/2000/svg">
<path d="M6 0.500001C5.62858 0.221433 5.18692 0.0517978 4.72451 0.0101029C4.26211 -0.031592 3.79723 0.0563008 3.38197 0.263933C2.9667 0.471565 2.61746 0.790733 2.37337 1.18567C2.12929 1.58061 2 2.03572 2 2.5V4H1C0.734784 4 0.48043 4.10536 0.292893 4.29289C0.105357 4.48043 0 4.73478 0 5V13C0 13.7957 0.316071 14.5587 0.87868 15.1213C1.44129 15.6839 2.20435 16 3 16H7.53L6.551 15H3C2.46957 15 1.96086 14.7893 1.58579 14.4142C1.21071 14.0391 1 13.5304 1 13V5H7V7.052C7.16779 7.01738 7.33867 6.99995 7.51 7H8V5H11V7.077C11.366 7.17 11.709 7.345 12 7.591V5C12 4.73478 11.8946 4.48043 11.7071 4.29289C11.5196 4.10536 11.2652 4 11 4H10V2.5C10 2.03572 9.87071 1.58061 9.62663 1.18567C9.38254 0.790733 9.0333 0.471565 8.61803 0.263933C8.20277 0.0563008 7.73789 -0.031592 7.27549 0.0101029C6.81308 0.0517978 6.37142 0.221433 6 0.500001ZM3 2.5C3 2.10218 3.15804 1.72065 3.43934 1.43934C3.72064 1.15804 4.10218 1 4.5 1C4.89782 1 5.27936 1.15804 5.56066 1.43934C5.84196 1.72065 6 2.10218 6 2.5V4H3V2.5ZM6.667 1.252C6.89291 1.10115 7.15554 1.01447 7.42686 1.00123C7.69818 0.987981 7.968 1.04866 8.20753 1.17679C8.44706 1.30492 8.64729 1.49569 8.78686 1.72874C8.92643 1.96178 9.0001 2.22836 9 2.5V4H7V2.5C7 2.046 6.879 1.62 6.667 1.252ZM6.432 13.449C6.15523 13.1664 6.00015 12.7866 6 12.391V9.511C5.99987 9.31262 6.03883 9.11616 6.11465 8.93284C6.19048 8.74953 6.30169 8.58295 6.44192 8.44262C6.58215 8.3023 6.74865 8.19099 6.93192 8.11504C7.11518 8.03909 7.31162 8 7.51 8H10.383C10.786 8 11.172 8.161 11.455 8.447L14.562 11.587C14.703 11.7294 14.8144 11.8984 14.8895 12.0842C14.9647 12.27 15.0022 12.4688 14.9999 12.6692C14.9976 12.8696 14.9554 13.0676 14.876 13.2516C14.7965 13.4355 14.6813 13.6019 14.537 13.741L11.59 16.578C11.3035 16.8541 10.9195 17.0058 10.5216 17C10.1238 16.9941 9.74434 16.8313 9.466 16.547L6.432 13.449ZM8 10.75C8 10.9489 8.07902 11.1397 8.21967 11.2803C8.36032 11.421 8.55109 11.5 8.75 11.5C8.94891 11.5 9.13968 11.421 9.28033 11.2803C9.42098 11.1397 9.5 10.9489 9.5 10.75C9.5 10.5511 9.42098 10.3603 9.28033 10.2197C9.13968 10.079 8.94891 10 8.75 10C8.55109 10 8.36032 10.079 8.21967 10.2197C8.07902 10.3603 8 10.5511 8 10.75Z" fill="#636363"/>
</svg>
