<svg width="18" height="20" viewBox="0 0 18 20" fill="none" xmlns="http://www.w3.org/2000/svg">
<path d="M6.33203 15.3333H5.66536V16H6.33203V15.3333ZM12.9987 15.3333V16H13.6654V15.3333H12.9987ZM6.9987 15.3333V14.6667H5.66536V15.3333H6.9987ZM12.332 14.6667V15.3333H13.6654V14.6667H12.332ZM12.9987 14.6667H6.33203V16H12.9987V14.6667ZM9.66537 12C10.3726 12 11.0509 12.281 11.551 12.781C12.0511 13.2811 12.332 13.9594 12.332 14.6667H13.6654C13.6654 13.6058 13.2439 12.5884 12.4938 11.8382C11.7436 11.0881 10.7262 10.6667 9.66537 10.6667V12ZM6.9987 14.6667C6.9987 13.9594 7.27965 13.2811 7.77975 12.781C8.27984 12.281 8.95812 12 9.66537 12V10.6667C8.6045 10.6667 7.58708 11.0881 6.83694 11.8382C6.08679 12.5884 5.66536 13.6058 5.66536 14.6667H6.9987ZM9.66537 4C8.95812 4 8.27984 4.28095 7.77975 4.78105C7.27965 5.28115 6.9987 5.95942 6.9987 6.66667H8.33203C8.33203 6.31305 8.47251 5.97391 8.72256 5.72386C8.9726 5.47381 9.31174 5.33333 9.66537 5.33333V4ZM12.332 6.66667C12.332 5.95942 12.0511 5.28115 11.551 4.78105C11.0509 4.28095 10.3726 4 9.66537 4V5.33333C10.019 5.33333 10.3581 5.47381 10.6082 5.72386C10.8582 5.97391 10.9987 6.31305 10.9987 6.66667H12.332ZM9.66537 9.33333C10.3726 9.33333 11.0509 9.05238 11.551 8.55229C12.0511 8.05219 12.332 7.37391 12.332 6.66667H10.9987C10.9987 7.02029 10.8582 7.35943 10.6082 7.60948C10.3581 7.85952 10.019 8 9.66537 8V9.33333ZM9.66537 8C9.31174 8 8.9726 7.85952 8.72256 7.60948C8.47251 7.35943 8.33203 7.02029 8.33203 6.66667H6.9987C6.9987 7.37391 7.27965 8.05219 7.77975 8.55229C8.27984 9.05238 8.95812 9.33333 9.66537 9.33333V8ZM3.66536 1.33333H15.6654V0H3.66536V1.33333ZM16.332 2V18H17.6654V2H16.332ZM15.6654 18.6667H3.66536V20H15.6654V18.6667ZM2.9987 18V2H1.66536V18H2.9987ZM3.66536 18.6667C3.48855 18.6667 3.31898 18.5964 3.19396 18.4714C3.06894 18.3464 2.9987 18.1768 2.9987 18H1.66536C1.66536 18.5304 1.87608 19.0391 2.25115 19.4142C2.62622 19.7893 3.13493 20 3.66536 20V18.6667ZM16.332 18C16.332 18.1768 16.2618 18.3464 16.1368 18.4714C16.0117 18.5964 15.8422 18.6667 15.6654 18.6667V20C16.1958 20 16.7045 19.7893 17.0796 19.4142C17.4547 19.0391 17.6654 18.5304 17.6654 18H16.332ZM15.6654 1.33333C15.8422 1.33333 16.0117 1.40357 16.1368 1.5286C16.2618 1.65362 16.332 1.82319 16.332 2H17.6654C17.6654 1.46957 17.4547 0.960859 17.0796 0.585786C16.7045 0.210714 16.1958 0 15.6654 0V1.33333ZM3.66536 0C3.13493 0 2.62622 0.210714 2.25115 0.585786C1.87608 0.960859 1.66536 1.46957 1.66536 2H2.9987C2.9987 1.82319 3.06894 1.65362 3.19396 1.5286C3.31898 1.40357 3.48855 1.33333 3.66536 1.33333V0ZM4.33203 5.33333H0.332031V6.66667H4.33203V5.33333ZM4.33203 13.3333H0.332031V14.6667H4.33203V13.3333Z" fill="#636363"/>
</svg>
