<svg width="18" height="14" viewBox="0 0 18 14" fill="none" xmlns="http://www.w3.org/2000/svg">
<path fill-rule="evenodd" clip-rule="evenodd" d="M14.9362 12.5417C15.1627 12.5417 15.38 12.4517 15.5402 12.2915C15.7004 12.1313 15.7904 11.914 15.7904 11.6875L15.7904 2.31251C15.7904 2.08597 15.7004 1.86871 15.5402 1.70852C15.38 1.54834 15.1627 1.45834 14.9362 1.45834L8.6862 1.45834C8.45966 1.45834 8.2424 1.54834 8.08221 1.70852C7.92202 1.86871 7.83203 2.08597 7.83203 2.31251V3.87501C7.83203 4.26621 7.5149 4.58334 7.1237 4.58334C6.7325 4.58334 6.41536 4.26621 6.41536 3.87501V2.31251C6.41536 1.71025 6.65461 1.13265 7.08048 0.706789C7.50634 0.280925 8.08393 0.0416765 8.6862 0.0416765L14.9362 0.0416765C15.5385 0.0416765 16.1161 0.280925 16.5419 0.706789C16.9678 1.13265 17.207 1.71025 17.207 2.31251V11.6875C17.207 12.2898 16.9678 12.8674 16.5419 13.2932C16.1161 13.7191 15.5385 13.9583 14.9362 13.9583L8.9987 13.9583C8.3911 13.9583 7.77156 13.7188 7.30075 13.3499C6.83264 12.9831 6.41536 12.4069 6.41536 11.6875V10.125C6.41536 9.73381 6.7325 9.41668 7.1237 9.41668C7.5149 9.41668 7.83203 9.73381 7.83203 10.125V11.6875C7.83203 11.831 7.92081 12.036 8.17448 12.2348C8.42545 12.4314 8.7434 12.5417 8.9987 12.5417L14.9362 12.5417ZM5.12456 10.6259C4.84794 10.9025 4.39945 10.9025 4.12283 10.6259L0.997829 7.50088C0.721207 7.22426 0.721207 6.77576 0.997829 6.49914L4.12283 3.37414C4.39945 3.09752 4.84794 3.09752 5.12456 3.37414C5.40119 3.65076 5.40119 4.09926 5.12456 4.37588L3.20877 6.29168L12.1237 6.29168C12.5149 6.29168 12.832 6.60881 12.832 7.00001C12.832 7.39121 12.5149 7.70834 12.1237 7.70834L3.20877 7.70834L5.12456 9.62414C5.40119 9.90076 5.40119 10.3493 5.12456 10.6259Z" fill="#636363"/>
</svg>
